<svg width="72" height="24" viewBox="0 0 72 24" fill="none" xmlns="http://www.w3.org/2000/svg">
<g clip-path="url(#clip0_110_840)">
<path d="M69.1422 15.4352L71.125 16.6774C70.4815 17.5682 68.9423 19.0965 66.2812 19.0965C62.9767 19.0965 60.5158 16.6938 60.5158 13.6373C60.5158 10.3848 63.0028 8.17822 66.003 8.17822C69.0205 8.17822 70.4988 10.4337 70.9772 11.6514L71.2381 12.2726L63.4638 15.2963C64.0551 16.3914 64.977 16.9471 66.2812 16.9471C67.5857 16.9471 68.49 16.3424 69.1422 15.4352ZM63.0464 13.4658L68.2379 11.439C67.9509 10.7608 67.0988 10.2787 66.0812 10.2787C64.7856 10.2787 62.9855 11.3574 63.0464 13.4658Z" fill="#7B9ACB"/>
<path d="M56.7679 2.61292L59.2722 2.61292L59.2722 18.598L56.7679 18.598L56.7679 2.61279L56.7679 2.61292Z" fill="#7B9ACB"/>
<path d="M52.8198 8.60346L55.2373 8.60346L55.2373 18.3122C55.2373 22.3411 52.7067 24 49.7152 24C46.8978 24 45.2022 22.2185 44.5673 20.7721L46.7847 19.9057C47.1847 20.7965 48.15 21.8508 49.7152 21.8508C51.637 21.8508 52.8198 20.7311 52.8198 18.6391L52.8198 17.8546L52.7329 17.8546C52.1588 18.5083 51.0632 19.0967 49.6718 19.0967C46.7673 19.0967 44.1062 16.7185 44.1062 13.654C44.1062 10.573 46.7673 8.17041 49.6718 8.17041C51.0545 8.17041 52.1588 8.75065 52.7329 9.38808L52.8198 9.38808L52.8198 8.60359L52.8198 8.60346ZM52.9936 13.654C52.9936 11.7253 51.6284 10.3196 49.8892 10.3196C48.1325 10.3196 46.6542 11.7253 46.6542 13.654C46.6542 15.5581 48.1325 16.9392 49.8892 16.9392C51.6285 16.9474 52.9938 15.5581 52.9938 13.654L52.9936 13.654Z" fill="#7B9ACB"/>
<path d="M30.3579 13.6127C30.3579 16.7591 27.7491 19.0718 24.5489 19.0718C21.3489 19.0718 18.74 16.751 18.74 13.6127C18.74 10.4501 21.3489 8.14551 24.5489 8.14551C27.7491 8.14551 30.3579 10.4501 30.3579 13.6127ZM27.8186 13.6127C27.8186 11.6515 26.3054 10.3029 24.5489 10.3029C22.7924 10.3029 21.2792 11.6515 21.2792 13.6127C21.2792 15.5577 22.7924 16.9225 24.5489 16.9225C26.3056 16.9225 27.8186 15.5577 27.8186 13.6127Z" fill="#7B9ACB"/>
<path d="M43.0454 13.6373C43.0454 16.7837 40.4366 19.0964 37.2365 19.0964C34.0363 19.0964 31.4276 16.7835 31.4276 13.6373C31.4276 10.4746 34.0363 8.17822 37.2365 8.17822C40.4366 8.17822 43.0454 10.4665 43.0454 13.6373ZM40.4974 13.6373C40.4974 11.6761 38.9843 10.3275 37.2277 10.3275C35.4712 10.3275 33.958 11.6761 33.958 13.6373C33.958 15.5823 35.4712 16.9471 37.2277 16.9471C38.993 16.9471 40.4974 15.5741 40.4974 13.6373Z" fill="#7B9ACB"/>
<path d="M9.19173 16.7021C5.54804 16.7021 2.69585 13.9398 2.69585 10.5156C2.69585 7.09148 5.54804 4.32922 9.19173 4.32922C11.1571 4.32922 12.5918 5.05652 13.6527 5.9882L15.4007 4.34562C13.9224 3.01355 11.9484 2 9.19173 2C4.20025 2.00013 -3.47436e-07 5.82488 -7.73522e-07 10.5156C-1.19963e-06 15.2066 4.20025 19.0312 9.19173 19.0312C11.8876 19.0312 13.9224 18.1976 15.5138 16.6449C17.1486 15.1084 17.653 12.9509 17.653 11.2021C17.653 10.6545 17.5834 10.0907 17.5051 9.67389L9.19173 9.67389L9.19173 11.9458L15.1137 11.9458C14.9398 13.3678 14.4616 14.3403 13.7572 15.0022C12.9049 15.8113 11.5572 16.7021 9.19173 16.7021Z" fill="#7B9ACB"/>
</g>
<defs>
<clipPath id="clip0_110_840">
<rect width="71.0705" height="24" fill="white" transform="translate(71.0706 24) rotate(-180)"/>
</clipPath>
</defs>
</svg>
