<svg width="93" height="24" viewBox="0 0 93 24" fill="none" xmlns="http://www.w3.org/2000/svg">
<path fill-rule="evenodd" clip-rule="evenodd" d="M10.214 2.19152C10.1151 2.20061 9.78118 2.22869 9.47199 2.25384C7.83099 2.38749 5.93207 2.84558 4.48697 3.45639C3.6521 3.80925 3.17409 4.15213 2.70863 4.73197C2.40052 5.1158 1.36759 6.79321 1.26658 7.07381C1.15406 7.38622 1.13405 7.76818 1.1953 8.43414C1.48254 11.5573 2.87385 14.6996 5.11969 17.2975C6.20344 18.5511 7.80517 19.881 8.77348 20.3312C9.50352 20.6705 9.69492 20.6999 11.3159 20.7214C12.3217 20.7346 12.8042 20.7253 12.9798 20.6889C13.317 20.6191 13.7115 20.4162 14.3515 19.9831C17.263 18.0133 19.5777 14.9309 20.6876 11.5457C21.0947 10.3038 21.3133 9.13012 21.3147 8.17801C21.3155 7.60637 21.3032 7.50237 21.195 7.16761C21.1287 6.96238 21.0172 6.67562 20.9473 6.53037C20.7992 6.22246 19.8706 4.6956 19.6751 4.43846C19.4324 4.11924 19.0035 3.86282 18.0478 3.46557C16.5766 2.85395 14.8252 2.42467 13.0923 2.25096C12.6326 2.20486 10.5387 2.16162 10.214 2.19152ZM10.5064 4.40596C11.1436 4.45537 10.7319 4.49275 9.48975 4.49827C8.51439 4.5026 7.84385 4.53256 7.05472 4.60694C6.94962 4.61688 6.86359 4.61098 6.86359 4.59382C6.86359 4.55269 7.41427 4.46259 7.92044 4.42095C8.45017 4.37741 10.0202 4.36832 10.5064 4.40596ZM11.1238 4.44398C11.1089 4.45808 11.07 4.45961 11.0376 4.44734C11.0017 4.43378 11.0124 4.42372 11.0648 4.42168C11.1122 4.41985 11.1387 4.42988 11.1238 4.44398ZM62.66 6.69091C62.4418 6.74495 62.2579 6.7958 62.2514 6.80387C62.2448 6.81195 62.1065 7.14356 61.944 7.54077C59.5868 13.3029 58.0999 16.8718 58.008 16.9876C57.7601 17.3002 57.1096 17.4385 56.7131 17.2629C56.5464 17.189 56.4673 17.0715 55.4025 15.315C54.7792 14.287 54.2268 13.3748 54.175 13.288L54.0806 13.1301L54.4537 12.953C55.199 12.5992 55.7033 12.1909 56.0176 11.6867C56.2856 11.2571 56.3855 10.9272 56.412 10.3849C56.4576 9.45376 56.2252 8.84171 55.5755 8.18183C54.7477 7.34106 54.1069 7.04785 52.8319 6.92661C52.5758 6.90222 51.4175 6.8823 50.258 6.8823H48.1498L48.1378 11.7784L48.1258 16.6745L48.0067 16.9144C47.6869 17.5588 46.8873 17.905 46.2034 17.6952C45.8553 17.5884 45.6964 17.4561 45.5882 17.1829C45.4962 16.9506 45.4949 16.8921 45.4949 12.8516C45.4949 10.0155 45.5103 8.68822 45.5448 8.53626C45.6455 8.09245 45.9733 7.90009 46.7429 7.8331L47.069 7.80472V7.50105C47.069 7.19947 47.0676 7.19612 46.8761 7.01858L46.6833 6.83982H43.9979H41.3125L41.3143 7.12657C41.316 7.40368 41.3224 7.41987 41.5062 7.60836C41.6915 7.79839 41.7051 7.80417 42.0337 7.83229C42.2192 7.84818 42.4718 7.88467 42.5949 7.91339C42.9774 8.0026 42.954 7.70548 42.954 12.4687V16.632L42.8245 16.8968C42.673 17.2068 42.3545 17.5093 42.0418 17.6402C41.7233 17.7736 41.2627 17.7885 40.9461 17.6756C40.6051 17.554 40.4743 17.4195 40.3687 17.0821C40.2885 16.8258 40.2713 16.4524 40.1667 12.7024C40.1039 10.4476 40.0526 8.2866 40.0528 7.90009L40.0533 7.19735L39.8604 7.01858L39.6676 6.83982H38.7207H37.7738L35.8488 10.7801C34.7901 12.9472 33.9112 14.7341 33.8957 14.751C33.8802 14.7678 33.0505 13.076 32.0518 10.9913C30.5057 7.76376 30.209 7.17411 30.0534 7.02037L29.8708 6.83982H28.0812H26.2917V7.1496C26.2917 7.4587 26.2921 7.45972 26.4828 7.63164C26.6632 7.79422 26.6967 7.80663 27.0787 7.85289C27.6652 7.92392 27.8064 7.97367 27.8689 8.13145C27.984 8.4219 27.9647 9.13926 27.778 11.5129C27.5095 14.9282 27.3564 16.3677 27.2094 16.8583C27.0751 17.3069 26.6702 17.5829 25.9987 17.6839L25.6621 17.7345V18.0349C25.6621 18.3266 25.667 18.3398 25.8326 18.4926L26.0031 18.6499H28.2611H30.5191V18.3614C30.5191 18.0772 30.5162 18.0703 30.328 17.9012C30.1511 17.7424 30.1084 17.7259 29.7546 17.6799C29.3093 17.622 29.083 17.5674 28.9786 17.4926C28.7677 17.3419 28.7587 15.9459 28.9458 12.4281C29.0204 11.0251 29.0863 9.84948 29.0922 9.81549C29.0981 9.78151 29.9293 11.6454 30.9394 13.9575C32.6946 17.9755 32.7851 18.1703 32.9837 18.3632C33.178 18.5517 33.2066 18.5649 33.4204 18.5649H33.6493L35.6707 14.2211L37.6922 9.8773L37.7315 13.106C37.7724 16.4618 37.7575 16.9228 37.5983 17.2297C37.4544 17.5072 37.2007 17.6144 36.3993 17.736L36.2306 17.7616V18.0484C36.2306 18.3245 36.237 18.3412 36.4011 18.4926L36.5717 18.6499H44.4062H52.2408V18.3612C52.2408 18.0834 52.2344 18.0665 52.0722 17.9173C51.9157 17.7735 51.8706 17.7577 51.4496 17.6984C50.8759 17.6177 50.7711 17.5729 50.7044 17.3793C50.6691 17.2768 50.6457 16.6514 50.6333 15.4744L50.6148 13.722H50.9686C51.3457 13.722 51.769 13.8059 51.9468 13.916C52.0797 13.9983 52.3424 14.4741 52.8247 15.5062C53.4739 16.8955 53.831 17.4286 54.5629 18.1011C54.964 18.4696 55.121 18.5826 55.4341 18.7285C56.3084 19.1356 57.2526 19.1349 58.1293 18.7266C58.431 18.586 58.5927 18.4731 58.8754 18.2055C59.3981 17.7108 59.604 17.3005 60.024 15.9167C60.1245 15.5858 60.2467 15.186 60.2956 15.0283L60.3846 14.7415L62.1704 14.7416L63.9561 14.7417L64.1524 15.2408C64.5789 16.3254 64.7881 16.9491 64.7881 17.1358C64.7881 17.295 64.7661 17.3429 64.6511 17.4343C64.5145 17.5429 64.1979 17.6518 63.8774 17.7005L63.7088 17.7262V18.0307C63.7088 18.3273 63.7133 18.3394 63.8793 18.4926L64.0499 18.6499H69.1636H74.2773V18.3826C74.2773 18.1242 74.271 18.1095 74.0862 17.9388C73.9023 17.7688 73.8775 17.7597 73.4302 17.6968C73.1746 17.6609 72.9116 17.6071 72.8458 17.5773C72.6399 17.4841 72.6224 17.2932 72.6176 15.092L72.6133 13.0847L72.7145 13.0848C72.962 13.0849 73.1162 13.2465 74.6211 15.0814C76.3575 17.1986 77.125 18.109 77.4413 18.4269L77.6633 18.6499H83.855H90.0466L90.1913 18.0687C90.2709 17.749 90.4197 17.0984 90.5219 16.6228L90.7079 15.7581L90.5163 15.5738C90.365 15.4281 90.2636 15.3738 90.0332 15.3148C89.8682 15.2726 89.7264 15.2565 89.7067 15.2777C89.6876 15.2982 89.6254 15.4297 89.5685 15.5699C89.3892 16.0114 89.0334 16.6217 88.7903 16.9045C88.5187 17.2205 88.1766 17.4198 87.7539 17.5085C87.3757 17.5878 85.723 17.5885 85.3977 17.5095C85.1871 17.4583 85.1567 17.4361 85.1071 17.2971C85.0344 17.0935 84.9984 9.33735 85.0677 8.8008C85.1547 8.12635 85.3719 7.94138 86.1838 7.85009L86.6447 7.79826L86.6436 7.49957C86.6425 7.20992 86.6371 7.19548 86.4621 7.02037L86.2817 6.83982H84.3952H82.5088L82.4968 11.7784L82.4848 16.717L82.381 16.9139C82.1209 17.4079 81.6458 17.7154 81.0931 17.7476C80.5243 17.7808 79.9358 17.5952 79.4371 17.2254C79.0685 16.9522 76.5703 14.1016 75.2975 12.5021C75.0332 12.1699 74.817 11.8814 74.817 11.8608C74.817 11.8007 77.5897 9.22622 78.01 8.896C78.8729 8.21807 79.4314 7.97116 80.3616 7.85621L80.7983 7.80221L80.7972 7.50156C80.7961 7.20958 80.7909 7.19569 80.6157 7.02037L80.4353 6.83982H78.0534H75.6715V7.1496C75.6715 7.45849 75.672 7.45985 75.8626 7.633C76.0382 7.79257 76.0793 7.80897 76.3685 7.83526C76.5417 7.85098 76.7029 7.88229 76.7269 7.90485C76.8232 7.99568 76.3724 8.54722 75.2709 9.68605C74.082 10.915 72.841 12.0227 72.6528 12.0227C72.6234 12.0227 72.6128 11.4257 72.6222 10.2915C72.6353 8.71805 72.6441 8.54391 72.7198 8.37963C72.8735 8.04623 73.1967 7.88773 73.8379 7.83144L74.1424 7.80472V7.50441C74.1424 7.20878 74.1395 7.2013 73.9532 7.02198L73.7639 6.83982H71.1424H68.5208V7.1496C68.5208 7.45849 68.5214 7.45985 68.712 7.633C68.887 7.79201 68.9292 7.80905 69.2136 7.83488C69.6929 7.87847 69.9559 7.94279 70.0043 8.0283C70.1152 8.22402 70.1391 9.02812 70.1395 12.5777C70.1398 16.4287 70.1311 16.6337 69.9527 16.9641C69.8135 17.2218 69.5242 17.4901 69.2468 17.6189C69.03 17.7194 68.9375 17.7365 68.6108 17.7365C68.276 17.7365 68.195 17.7207 67.9587 17.6091C67.6927 17.4835 67.6855 17.4753 67.4547 17.0356C67.1993 16.5491 66.3028 14.3039 64.5903 9.86184C63.5529 7.17101 63.4755 6.98791 63.2943 6.79682C63.1884 6.68501 63.0915 6.59333 63.0792 6.59308C63.0668 6.59282 62.8782 6.63683 62.66 6.69091ZM12.8674 6.98392C13.5055 7.08073 14.2343 7.23902 14.8387 7.41205C15.3792 7.56682 16.2555 7.88106 16.3255 7.94521C16.3756 7.99113 16.2875 8.75654 16.17 9.29581C15.7173 11.3741 14.552 13.3532 12.8259 14.9756C12.2364 15.5296 11.3615 16.2284 11.2573 16.2284C11.1304 16.2284 10.1733 15.4935 9.62831 14.9775C7.87839 13.3206 6.74418 11.1765 6.28146 8.65041C6.13912 7.87341 6.11151 7.943 6.64997 7.72056C7.48376 7.37611 8.60231 7.08099 9.49448 6.97007C9.69236 6.94547 9.91497 6.91743 9.98917 6.90774C10.3311 6.86314 12.4391 6.91892 12.8674 6.98392ZM52.5556 8.02656C53.1667 8.22376 53.3867 8.4397 53.6185 9.07014C53.7345 9.38553 53.7436 9.45894 53.7454 10.0897C53.7471 10.676 53.7337 10.8103 53.6481 11.0668C53.2816 12.1642 52.4097 12.7024 50.9982 12.7024H50.6218V10.6183C50.6218 8.46234 50.6386 8.23252 50.8063 8.0891C51.0486 7.88199 52.002 7.84792 52.5556 8.02656ZM62.8543 11.7505C63.1882 12.652 63.468 13.4166 63.476 13.4496C63.4882 13.5002 63.2854 13.5095 62.183 13.5095C61.4639 13.5095 60.8755 13.5005 60.8755 13.4893C60.8755 13.4709 61.4487 11.9979 61.9795 10.6526C62.097 10.3547 62.2053 10.111 62.2202 10.1111C62.235 10.1113 62.5204 10.849 62.8543 11.7505ZM19.032 10.3598C18.993 10.4309 18.9612 10.5113 18.9612 10.5384C18.9612 10.6124 18.2662 11.9435 18.0608 12.2628C17.9624 12.4159 17.8818 12.5489 17.8818 12.5584C17.8818 12.5763 17.4938 13.1354 17.2542 13.4628C16.9454 13.8847 17.1684 13.444 17.6068 12.7661C17.6521 12.696 17.7297 12.5717 17.7793 12.49C17.8288 12.4082 17.9315 12.2421 18.0077 12.1209C18.0838 11.9996 18.272 11.6651 18.4259 11.3774C18.5799 11.0898 18.7471 10.7886 18.7975 10.7082C18.8479 10.6278 18.8917 10.5292 18.8949 10.489C18.9017 10.4015 19.049 10.1797 19.0805 10.2095C19.0927 10.2211 19.0709 10.2887 19.032 10.3598ZM17.0329 13.7506C16.9798 13.8367 16.9671 13.8092 17.0105 13.7024C17.0258 13.6644 17.048 13.6423 17.0595 13.6532C17.0711 13.6641 17.0591 13.708 17.0329 13.7506ZM5.6943 14.0193C5.6943 14.0427 5.6854 14.0618 5.67447 14.0618C5.66354 14.0618 5.64213 14.0427 5.62684 14.0193C5.61155 13.996 5.6205 13.9769 5.64668 13.9769C5.67285 13.9769 5.6943 13.996 5.6943 14.0193ZM6.11138 14.7044C6.33057 15.0865 6.42038 15.235 6.66332 15.6167C6.86012 15.9259 7.47013 16.8308 7.54829 16.9294C7.81314 17.2634 7.90074 17.387 7.88397 17.4028C7.85865 17.4268 7.2575 16.7171 7.01501 16.3771C6.84344 16.1365 6.45883 15.5511 6.45883 15.5306C6.45883 15.5253 6.33727 15.315 6.18864 15.063C6.04005 14.8111 5.90626 14.5591 5.89133 14.503C5.87644 14.4468 5.84622 14.3904 5.82423 14.3775C5.80224 14.3647 5.78434 14.3123 5.78443 14.2611C5.78456 14.1792 5.79482 14.1839 5.87032 14.3009C5.91746 14.3739 6.02597 14.5555 6.11138 14.7044Z" fill="#7B9ACB"/>
</svg>
