<svg width="125" height="24" viewBox="0 0 125 24" fill="none" xmlns="http://www.w3.org/2000/svg">
<g clip-path="url(#clip0_110_850)">
<path fill-rule="evenodd" clip-rule="evenodd" d="M16.1553 10.3116C16.0683 10.2279 16.0194 10.1144 16.0194 9.99596C16.0194 9.87757 16.0683 9.76402 16.1553 9.68036L19.5538 6.40779C19.7352 6.23325 20.0292 6.23325 20.2106 6.40779L27.077 13.0161C27.5776 13.5166 27.573 14.3099 27.0666 14.805L20.0183 21.5894C19.9313 21.6736 19.8131 21.721 19.6899 21.7213H12.8864C12.695 21.7213 12.5233 21.6082 12.4541 21.4364C12.3849 21.2647 12.4325 21.0697 12.5739 20.9456L19.5603 14.2181C19.647 14.1347 19.6956 14.0217 19.6956 13.9038C19.6956 13.7859 19.647 13.6729 19.5603 13.5895L16.1544 10.3116H16.1553ZM11.4715 13.5932C11.5585 13.6768 11.6074 13.7904 11.6074 13.9088C11.6074 14.0272 11.5585 14.1407 11.4715 14.2244L8.07301 17.4969C7.89163 17.6714 7.59759 17.6714 7.41621 17.4969L0.547997 10.8886C0.0481842 10.388 0.0531752 9.59539 0.559255 9.10062L7.60856 2.31439C7.69577 2.23072 7.81382 2.18365 7.93696 2.18345H14.7395C14.9309 2.1834 15.1026 2.29656 15.1718 2.4683C15.241 2.64003 15.1934 2.83503 15.0519 2.95914L8.0655 9.68668C7.97912 9.77021 7.93026 9.88307 7.92945 10.0009C7.92945 10.1156 7.97637 10.2303 8.0655 10.3161L11.4715 13.5941V13.5932ZM35.5609 13.7422C36.2656 14.3598 37.3558 14.7301 38.4021 14.7301C39.1517 14.7301 39.7278 14.3797 39.7278 13.8866C39.7278 12.3858 34.7062 12.9195 34.7062 9.71016C34.7062 7.79754 36.6295 6.60465 38.6817 6.60465C40.028 6.60465 41.502 7.09951 42.1861 7.61243L40.8828 9.5449C40.348 9.17646 39.6442 8.86763 38.8937 8.86763C38.1251 8.86763 37.4835 9.1566 37.4835 9.67132C37.4835 10.9645 42.507 10.4506 42.507 13.9083C42.507 15.82 40.5619 16.993 38.3824 16.993C36.9495 16.993 35.4313 16.519 34.2134 15.6566L35.5609 13.7422ZM46.8869 13.2897C47.4611 14.0698 48.3951 14.5307 49.3883 14.5242C50.9477 14.5242 52.1243 13.3719 52.1243 11.8088C52.1243 10.3685 51.0773 9.07443 49.4521 9.07443C48.4427 9.07128 47.4913 9.5281 46.8869 10.3062V13.2897ZM44.1096 6.81144H46.7809V7.61243C47.5924 6.9749 48.6406 6.60465 49.8153 6.60465C52.6375 6.60465 54.9026 8.86763 54.9026 11.8088C54.9026 13.1669 54.411 14.4005 53.5983 15.3062C52.6788 16.3347 51.2058 16.993 49.666 16.993C48.619 16.993 47.721 16.7041 46.8869 16.0873V21.724H44.1096V6.81144ZM63.1782 10.5129C63.092 9.62798 62.2587 8.76379 61.1262 8.76379C59.9722 8.76379 59.0311 9.60812 58.9024 10.5129H63.1782ZM65.7652 15.2024C64.7602 16.3546 63.1144 16.993 61.511 16.993C58.4118 16.993 56.0821 14.936 56.0821 11.8079C56.0821 9.03199 58.0477 6.60465 61.1262 6.60465C63.9907 6.60465 66.0213 8.92994 66.0213 11.7067C66.0213 11.9731 65.9997 12.2413 65.9565 12.4671H58.7759C58.925 13.8668 60.0987 14.8321 61.5746 14.8321C62.7505 14.8321 63.6906 14.1964 64.1832 13.6817L65.7652 15.2024ZM67.6247 16.7872V6.81144H70.2969V7.61243C71.1204 6.95684 72.1568 6.60019 73.2254 6.60465C74.6562 6.60465 75.9614 7.22141 76.8162 8.20933C77.4993 8.98954 77.8839 9.99732 77.8839 11.7067V16.7872H75.1065V11.5008C75.1065 10.5129 74.872 9.99822 74.4855 9.62798C74.1224 9.2785 73.567 9.07443 72.9261 9.07443C71.7504 9.07443 70.7877 9.79233 70.403 10.3062V16.7872H67.6247ZM87.399 10.3062C86.7948 9.52787 85.8432 9.071 84.8338 9.07443C83.2086 9.07443 82.1625 10.3685 82.1625 11.8079C82.1625 13.371 83.3372 14.5242 84.8976 14.5242C85.891 14.5312 86.8251 14.0702 87.399 13.2897V10.3062ZM87.505 16.7872V15.9853C86.6493 16.6851 85.6679 16.993 84.6199 16.993C83.0811 16.993 81.6277 16.3338 80.7092 15.3062C79.8465 14.3303 79.3761 13.0891 79.3833 11.8079C79.3833 8.86763 81.6484 6.60465 84.4706 6.60465C85.6031 6.60465 86.5855 6.91348 87.3982 7.52935V2.18164H90.1772V16.7872H87.505ZM98.9333 10.5129C98.8479 9.62798 98.0138 8.76379 96.8813 8.76379C95.7273 8.76379 94.7862 9.60812 94.6585 10.5129H98.9333ZM101.518 15.2024C100.514 16.3546 98.8685 16.993 97.2659 16.993C94.1669 16.993 91.837 14.936 91.837 11.8079C91.837 9.03199 93.8028 6.60465 96.8813 6.60465C99.7449 6.60465 101.775 8.92994 101.775 11.7067C101.775 11.9731 101.755 12.2413 101.713 12.4671H94.5308C94.6791 13.8668 95.8548 14.8321 97.3298 14.8321C98.5054 14.8321 99.4465 14.1964 99.9381 13.6817L101.518 15.2024ZM104.381 13.7422C105.086 14.3598 106.176 14.7301 107.224 14.7301C107.972 14.7301 108.549 14.3797 108.549 13.8866C108.549 12.3858 103.525 12.9195 103.525 9.71016C103.525 7.79754 105.449 6.60465 107.501 6.60465C108.847 6.60465 110.323 7.09951 111.006 7.61243L109.703 9.5449C109.169 9.17646 108.464 8.86763 107.715 8.86763C106.945 8.86763 106.304 9.1566 106.304 9.67132C106.304 10.9645 111.327 10.4506 111.327 13.9083C111.327 15.82 109.382 16.993 107.202 16.993C105.77 16.993 104.253 16.519 103.035 15.6566L104.381 13.7422ZM117.907 11.295L123.615 16.7872H119.874L115.492 12.4671V16.7872H112.714V2.18164H115.492V10.0398L119.061 6.81144H122.974L117.907 11.295Z" fill="#7B9ACB"/>
</g>
<defs>
<clipPath id="clip0_110_850">
<rect width="124" height="24" fill="white" transform="translate(0.0705566)"/>
</clipPath>
</defs>
</svg>
