<svg width="56" height="24" viewBox="0 0 56 24" fill="none" xmlns="http://www.w3.org/2000/svg">
<path fill-rule="evenodd" clip-rule="evenodd" d="M0.0705566 9.06244C0.0705566 12.9776 0.086498 15.2816 0.115588 15.5674C0.218928 16.5834 0.442494 17.3541 0.894225 18.2519C1.25589 18.9706 1.64334 19.5095 2.17388 20.0315C3.33442 21.1733 4.78934 21.8169 6.56232 21.9728C8.49905 22.1431 10.4526 21.5057 11.8118 20.26L12.1448 19.9548V20.8128V21.6709H13.5413H14.9377V12.3354V3H13.5198H12.1018V9.0081C12.1018 14.2359 12.0931 15.0746 12.0346 15.4659C11.875 16.5348 11.428 17.4574 10.7299 18.1584C10.1625 18.7282 9.44492 19.1377 8.64282 19.3492C8.26199 19.4497 8.13248 19.4627 7.50415 19.4637C6.98522 19.4645 6.70876 19.4451 6.4729 19.3916C4.70353 18.9895 3.57281 17.8541 3.04137 15.9457L2.92832 15.5398L2.91633 9.26992L2.9043 3H1.48741H0.0705566V9.06244ZM17.0862 12.3354V21.6709H18.4173H19.7484L19.7601 20.8382L19.7717 20.0055L20.094 20.285C20.7711 20.8721 21.6559 21.3796 22.4728 21.6494C25.1185 22.523 28.1545 21.7031 30.0063 19.6149C30.6295 18.9122 31.2049 17.9166 31.4726 17.0779C32.273 14.5704 31.6503 11.8812 29.8266 9.96911C28.8334 8.92773 27.491 8.20059 26.0163 7.90519C25.6001 7.82183 25.3988 7.80786 24.6272 7.80876C23.8603 7.8097 23.6597 7.82397 23.2907 7.90391C22.212 8.13753 21.327 8.54867 20.4592 9.21933C20.2702 9.36545 20.0587 9.54473 19.9893 9.61779C19.9199 9.6908 19.8474 9.75058 19.8281 9.75058C19.8089 9.75058 19.7932 8.2317 19.7932 6.37529V3H18.4397H17.0862V12.3354ZM39.2581 7.83076C38.0663 7.91707 36.9818 8.29027 35.9501 8.96917C35.3404 9.37032 34.5112 10.178 34.117 10.7546C33.1858 12.117 32.7601 13.5756 32.8266 15.1767C32.8784 16.4248 33.1562 17.3931 33.7658 18.4502C35.0373 20.6552 37.3939 21.97 40.0745 21.97C42.0955 21.97 43.794 21.292 45.2014 19.9235C45.5999 19.536 45.9935 19.0797 45.9565 19.0481C45.8499 18.9568 44.1015 17.6902 44.0604 17.6745C44.0288 17.6625 43.8862 17.7875 43.7305 17.9638C42.9025 18.9014 41.9782 19.407 40.7834 19.5759C38.7546 19.8627 36.8036 18.8243 35.9293 16.9923C35.7784 16.6762 35.5627 16.0074 35.5627 15.8557C35.5627 15.7773 35.7088 15.7749 41.1165 15.7643L46.6702 15.7535L46.6594 14.963C46.6474 14.0805 46.5716 13.4258 46.4135 12.8392C45.5335 9.5728 42.6896 7.58227 39.2581 7.83076ZM53.6526 7.98517C53.179 8.03362 52.5806 8.21888 52.2084 8.43233C51.7735 8.68176 51.2617 9.15106 51.007 9.53396L50.8811 9.72319L50.8694 8.90372L50.8578 8.08429H49.5052H48.1526V14.8776V21.6709H49.5276H50.9026V17.5131C50.9026 14.796 50.9182 13.2673 50.9478 13.1017C51.0798 12.3605 51.3509 11.8254 51.8471 11.3267C52.1426 11.0297 52.2835 10.9247 52.5784 10.7812C53.0724 10.5409 53.4436 10.4769 54.3439 10.4769H55.0706V9.21651V7.95612L54.4368 7.96295C54.0882 7.96671 53.7353 7.97671 53.6526 7.98517ZM40.676 10.2436C41.7055 10.4578 42.6434 11.0899 43.2414 11.9723C43.5099 12.3684 43.8062 13.0487 43.916 13.5211L43.9433 13.6386H39.7745C36.7656 13.6386 35.6057 13.6254 35.6057 13.5915C35.6057 13.4666 35.8894 12.7237 36.0567 12.4105C36.6159 11.3635 37.6047 10.5658 38.6886 10.2872C39.2902 10.1327 40.0615 10.1157 40.676 10.2436ZM25.6155 10.3246C27.3247 10.7618 28.6718 12.1827 29.0289 13.925C29.1387 14.4606 29.1476 15.2657 29.0494 15.7802C28.6832 17.6995 27.1358 19.2227 25.2124 19.5574C23.5615 19.8447 21.8136 19.1757 20.7508 17.8498C20.4134 17.4289 20.0035 16.618 19.8799 16.1267C19.5647 14.8741 19.752 13.5485 20.3941 12.4861C21.1477 11.2393 22.3276 10.4484 23.7714 10.2221C24.2267 10.1508 25.1328 10.2011 25.6155 10.3246Z" fill="#7B9ACB"/>
</svg>
