<svg width="24" height="24" viewBox="0 0 24 24" fill="none" xmlns="http://www.w3.org/2000/svg">
<rect width="24" height="24" rx="3" fill="#EBFAFE"/>
<g clip-path="url(#clip0_266_11596)">
<path fill-rule="evenodd" clip-rule="evenodd" d="M16.1623 6.23389C16.2293 6.16695 16.3378 6.16695 16.4048 6.23389L18.6212 8.45028C18.6881 8.51723 18.6881 8.62577 18.6212 8.69272L16.2843 11.0296L13.8255 8.57073L16.1623 6.23389ZM12.8558 9.54048L6.68356 15.7127V18.1715H9.14239L15.3146 11.9993L12.8558 9.54048ZM16.7394 12.514L9.91129 19.3421C9.7827 19.4707 9.60828 19.5429 9.42642 19.5429H5.99785C5.61914 19.5429 5.31213 19.2359 5.31213 18.8572V15.4286C5.31213 15.2468 5.38438 15.0724 5.51297 14.9438L15.1926 5.26415C15.7951 4.66162 16.772 4.66162 17.3745 5.26415L19.5909 7.48054L19.106 7.96541L19.5909 7.48054C20.1934 8.08306 20.1934 9.05994 19.5909 9.66247L16.799 12.4544C16.7898 12.4648 16.7801 12.4751 16.7701 12.4851C16.7601 12.4951 16.7499 12.5047 16.7394 12.514Z" fill="#1798C1"/>
<path d="M6.53347 2.42047C6.50286 3.32817 6.85107 4.00137 7.21841 4.66323C7.35233 4.9015 7.57809 5.0074 7.85742 4.99228C8.06022 4.98093 8.26301 4.96958 8.46581 4.98093C8.68775 4.99606 8.86376 5.15112 8.90585 5.34022C8.94412 5.50663 8.8255 5.7449 8.63035 5.83567C8.49643 5.89996 8.34337 5.97561 8.19796 5.97561C7.6967 5.97939 7.41355 6.28573 7.16483 6.64881C6.87019 7.06862 6.70949 7.54516 6.56791 8.02926C6.51052 8.22215 6.46077 8.41504 6.39189 8.60415C6.32684 8.7819 6.20057 8.90671 5.99777 8.91427C5.7988 8.92184 5.66105 8.79703 5.56921 8.64197C5.50799 8.53607 5.46972 8.41126 5.45059 8.29023C5.40467 8.01792 5.38555 7.74183 5.34346 7.46574C5.23249 6.75093 4.56286 6.14202 3.84732 6.09285C3.61774 6.07772 3.38815 6.07772 3.1624 6.04747C2.94046 6.01721 2.77209 5.84701 2.74531 5.66548C2.7147 5.46124 2.87541 5.23054 3.11647 5.15868C3.36136 5.09061 3.61391 5.05657 3.8588 4.98849C4.83837 4.72375 5.35493 4.11861 5.45442 3.11258C5.4812 2.86297 5.47355 2.60957 5.49268 2.35996C5.50799 2.12169 5.61513 1.9288 5.82176 1.79643C6.11257 1.61111 6.47224 1.75482 6.52199 2.08386C6.5526 2.23515 6.53347 2.38643 6.53347 2.42047Z" fill="#1798C1"/>
<path d="M17.6997 20.754C17.7201 20.1056 17.488 19.6248 17.2431 19.152C17.1538 18.9818 17.0033 18.9062 16.8171 18.917C16.6819 18.9251 16.5467 18.9332 16.4115 18.9251C16.2635 18.9143 16.1462 18.8035 16.1181 18.6684C16.0926 18.5496 16.1717 18.3794 16.3018 18.3146C16.3911 18.2686 16.4931 18.2146 16.5901 18.2146C16.9242 18.2119 17.113 17.9931 17.2788 17.7337C17.4752 17.4339 17.5824 17.0935 17.6768 16.7477C17.715 16.6099 17.7482 16.4721 17.7941 16.3371C17.8375 16.2101 17.9217 16.121 18.0569 16.1156C18.1895 16.1102 18.2813 16.1993 18.3426 16.3101C18.3834 16.3857 18.4089 16.4749 18.4217 16.5613C18.4523 16.7558 18.465 16.953 18.4931 17.1502C18.5671 17.6608 19.0135 18.0957 19.4905 18.1309C19.6436 18.1417 19.7966 18.1417 19.9471 18.1633C20.0951 18.1849 20.2073 18.3065 20.2252 18.4361C20.2456 18.582 20.1384 18.7468 19.9777 18.7981C19.8145 18.8467 19.6461 18.8711 19.4828 18.9197C18.8298 19.1088 18.4854 19.541 18.4191 20.2596C18.4012 20.4379 18.4063 20.6189 18.3936 20.7972C18.3834 20.9674 18.312 21.1052 18.1742 21.1997C17.9803 21.3321 17.7405 21.2294 17.7074 20.9944C17.687 20.8864 17.6997 20.7783 17.6997 20.754Z" fill="#1798C1"/>
</g>
<defs>
<clipPath id="clip0_266_11596">
<rect x="1.71423" y="1.71423" width="20.5714" height="20.5714" rx="4" fill="white"/>
</clipPath>
</defs>
</svg>
