<svg width="18" height="18" viewBox="0 0 18 18" fill="none" xmlns="http://www.w3.org/2000/svg">
<g clip-path="url(#clip0_1925_8793)">
<path d="M15.0385 0.297146C15.0305 0.305146 15.2225 12.4411 15.2225 12.4491C15.2465 13.6811 15.2705 14.5291 15.2545 15.1211C15.2145 16.7211 14.3504 16.9212 13.7904 16.3052C13.7824 16.2972 10.9345 13.2652 10.2625 12.5452C9.09448 11.2812 9.33448 11.1691 6.53448 14.2891C5.83848 15.0571 5.33448 15.5771 4.89448 16.0171C3.88648 17.0331 3.3424 16.7771 3.1664 15.3531C3.0384 14.3531 3.00648 12.5452 2.98246 9.22523C2.93446 2.90523 2.56649 0.44113 2.89449 0.20113C3.90248 -0.52687 13.3265 -0.470822 14.4545 -0.350822C14.8945 -0.302822 15.1905 0.0251464 15.0385 0.297146Z" fill="#EA75CF"/>
</g>
<defs>
<clipPath id="clip0_1925_8793">
<rect width="18" height="18" fill="white"/>
</clipPath>
</defs>
</svg>
