<svg width="80" height="80" viewBox="0 0 80 80" fill="none" xmlns="http://www.w3.org/2000/svg">
<rect width="80" height="80" rx="4" fill="#00A1E0"/>
<g clip-path="url(#clip0_1368_5012)">
<path d="M35.633 21.9095C37.697 19.7493 40.5706 18.4094 43.7487 18.4094C47.9735 18.4094 51.6594 20.7757 53.6223 24.2885C55.3281 23.523 57.2162 23.0971 59.2027 23.0971C66.8224 23.0971 73 29.3563 73 37.077C73 44.7985 66.8224 51.0577 59.2027 51.0577C58.29 51.0583 57.3795 50.9672 56.4849 50.7857C54.7564 53.8828 51.4625 55.9753 47.6818 55.9753C46.099 55.9753 44.6021 55.6081 43.2692 54.9552C41.5169 59.0953 37.4345 61.9982 32.6763 61.9982C27.7214 61.9982 23.4985 58.8489 21.8775 54.4323C21.1692 54.5834 20.4352 54.6621 19.6822 54.6621C13.7827 54.6622 9 49.8087 9 43.8206C9 39.8078 11.1488 36.3041 14.3415 34.4296C13.6842 32.9104 13.3186 31.2336 13.3186 29.4707C13.3186 22.5843 18.8844 17.002 25.7494 17.002C29.7799 17.002 33.362 18.9269 35.633 21.9095Z" fill="white"/>
</g>
<defs>
<clipPath id="clip0_1368_5012">
<rect width="64" height="45" fill="white" transform="translate(9 17)"/>
</clipPath>
</defs>
</svg>
