<svg width="80" height="80" viewBox="0 0 80 80" fill="none" xmlns="http://www.w3.org/2000/svg">
<rect width="80" height="80" rx="4" fill="#FF8459"/>
<path d="M56.3215 38.7007C55.1641 36.7191 53.536 35.1305 51.5006 33.9346C49.9796 33.0534 48.4024 32.4942 46.625 32.254V25.9575C48.4024 25.2066 49.5054 23.5444 49.5054 21.6052C49.5054 18.9621 47.3754 16.8203 44.7215 16.8203C42.0654 16.8203 39.8981 18.9621 39.8981 21.6052C39.8981 23.5444 40.9375 25.2066 42.7149 25.9575V32.2568C41.293 32.4613 39.8185 32.9024 38.472 33.5801C35.7217 31.5016 26.7035 24.6827 21.428 20.7C21.5531 20.2511 21.6495 19.7885 21.6495 19.3003C21.6495 16.3728 19.2671 14 16.3242 14C13.3813 14 11 16.3728 11 19.3003C11 22.2274 13.3838 24.601 16.3267 24.601C17.3305 24.601 18.259 24.3088 19.0602 23.8284L20.1736 24.6689L35.4715 35.6374C34.6628 36.3764 33.9096 37.2168 33.307 38.1599C32.086 40.0824 31.3399 42.1977 31.3399 44.5051V44.9865C31.3399 46.6063 31.6491 48.1355 32.1759 49.572C32.6398 50.8263 33.3181 51.9667 34.158 52.9979L29.0809 58.0626C28.3451 57.7901 27.546 57.7341 26.7791 57.9015C26.0122 58.0689 25.3099 58.4524 24.7563 59.0064C24.3729 59.386 24.0691 59.8375 23.8623 60.3348C23.6556 60.8321 23.5501 61.3653 23.5519 61.9034C23.5523 62.9975 23.9806 64.0258 24.7584 64.7994C25.1396 65.1812 25.5932 65.4839 26.0928 65.69C26.5924 65.896 27.1281 66.0014 27.669 66C28.21 66.0014 28.7458 65.896 29.2456 65.6899C29.7454 65.4838 30.1992 65.1812 30.5806 64.7994C30.9637 64.4198 31.2675 63.9685 31.4743 63.4714C31.6811 62.9743 31.7869 62.4414 31.7856 61.9034C31.7856 61.48 31.7199 61.0668 31.5962 60.6742L36.844 55.4514C37.5634 55.9459 38.3405 56.3622 39.1758 56.7212C40.8234 57.4301 42.642 57.862 44.6323 57.862H44.997C47.1973 57.862 49.2729 57.3477 51.2241 56.2957C53.2801 55.1839 54.8893 53.6636 56.105 51.7227C57.3271 49.7764 58 47.6261 58 45.2603V45.1422C58 42.815 57.4586 40.6678 56.3215 38.7007ZM49.9095 49.6569C48.4852 51.232 46.8479 52.2023 44.997 52.2023H44.692C43.6348 52.2023 42.6008 51.9116 41.5884 51.3827C40.4473 50.8005 39.58 49.9699 38.8701 48.9183C38.1364 47.8861 37.7383 46.7591 37.7383 45.5642V45.2013C37.7383 44.0265 37.9648 42.9126 38.5356 41.8606C39.146 40.7106 39.9703 39.8164 41.0666 39.1054C42.1429 38.3994 43.2925 38.0531 44.5729 38.0531H44.692C45.8529 38.0531 46.9521 38.2809 47.9893 38.809C49.0461 39.3721 49.9095 40.1415 50.5789 41.1535C51.229 42.1659 51.6158 43.2579 51.7402 44.4475C51.7598 44.6947 51.7697 44.948 51.7697 45.1899C51.7697 46.8044 51.1498 48.2996 49.9095 49.6569Z" fill="white"/>
</svg>
