<svg width="100" height="31" viewBox="0 0 100 31" fill="none" xmlns="http://www.w3.org/2000/svg">
<rect width="100" height="31" fill="white"/>
<path d="M39.7508 22.3296C39.3004 22.3296 38.9011 22.2061 38.553 21.9591C38.2049 21.712 37.9336 21.3775 37.7391 20.9554C37.5445 20.5231 37.4473 20.029 37.4473 19.4731V11.0425C37.4473 10.8161 37.5189 10.6308 37.6623 10.4867C37.8056 10.3426 37.9899 10.2705 38.2151 10.2705C38.4404 10.2705 38.6247 10.3426 38.768 10.4867C38.9113 10.6308 38.983 10.8161 38.983 11.0425V19.4731C38.983 19.854 39.0547 20.1679 39.198 20.415C39.3413 20.662 39.5256 20.7856 39.7508 20.7856H40.1348C40.3395 20.7856 40.5033 20.8576 40.6262 21.0017C40.7593 21.1458 40.8259 21.3311 40.8259 21.5576C40.8259 21.7841 40.7286 21.9693 40.5341 22.1135C40.3395 22.2576 40.0887 22.3296 39.7816 22.3296H39.7508Z" fill="#2D3958"/>
<path d="M47.5297 22.3914C46.68 22.3914 45.9224 22.2112 45.2569 21.851C44.6016 21.4804 44.0846 20.976 43.7058 20.3378C43.3372 19.6893 43.1529 18.9481 43.1529 18.1143C43.1529 17.2703 43.327 16.5291 43.6751 15.8909C44.0334 15.2424 44.5249 14.738 45.1494 14.3777C45.7739 14.0071 46.4906 13.8218 47.2994 13.8218C48.098 13.8218 48.7839 14.002 49.3573 14.3623C49.9306 14.7123 50.3657 15.2012 50.6626 15.8291C50.9698 16.4468 51.1233 17.1622 51.1233 17.9754C51.1233 18.171 51.0568 18.3357 50.9237 18.4695C50.7906 18.593 50.6217 18.6548 50.4169 18.6548H44.5812C44.6938 19.365 45.0163 19.9466 45.5487 20.3996C46.0913 20.8422 46.7516 21.0635 47.5297 21.0635C47.8471 21.0635 48.1696 21.0069 48.4973 20.8937C48.8351 20.7701 49.1064 20.6312 49.3112 20.4768C49.4648 20.3635 49.6286 20.3069 49.8026 20.3069C49.9869 20.2966 50.1456 20.3481 50.2787 20.4613C50.4527 20.6157 50.5449 20.7856 50.5551 20.9709C50.5654 21.1561 50.4834 21.3157 50.3094 21.4495C49.9613 21.7274 49.5262 21.9539 49.004 22.1289C48.4921 22.3039 48.0007 22.3914 47.5297 22.3914ZM47.2994 15.1497C46.5418 15.1497 45.9326 15.3608 45.4719 15.7828C45.0112 16.2049 44.7194 16.7504 44.5965 17.4195H49.7105C49.6183 16.7607 49.3675 16.2203 48.958 15.7982C48.5484 15.3659 47.9956 15.1497 47.2994 15.1497Z" fill="#2D3958"/>
<path d="M58.012 22.3914C57.2646 22.3914 56.594 22.2061 56.0002 21.8355C55.4064 21.4547 54.9354 20.9451 54.5873 20.3069C54.2495 19.6584 54.0806 18.9275 54.0806 18.1143C54.0806 17.3011 54.2648 16.5703 54.6334 15.9218C55.0122 15.2733 55.519 14.7637 56.1538 14.3932C56.7988 14.0123 57.5206 13.8218 58.3191 13.8218C59.1177 13.8218 59.8344 14.0123 60.4692 14.3932C61.1039 14.7637 61.6056 15.2733 61.9742 15.9218C62.353 16.5703 62.5424 17.3011 62.5424 18.1143V21.5576C62.5424 21.7841 62.4656 21.9745 62.312 22.1289C62.1687 22.273 61.9844 22.3451 61.7592 22.3451C61.5339 22.3451 61.3445 22.273 61.1909 22.1289C61.0476 21.9745 60.9759 21.7841 60.9759 21.5576V20.9863C60.6176 21.4186 60.1825 21.7635 59.6706 22.0208C59.1689 22.2679 58.616 22.3914 58.012 22.3914ZM58.3191 21.0017C58.8413 21.0017 59.3071 20.8782 59.7166 20.6312C60.1262 20.3738 60.4487 20.029 60.6842 19.5966C60.9196 19.154 61.0374 18.6599 61.0374 18.1143C61.0374 17.5585 60.9196 17.0644 60.6842 16.632C60.4487 16.1894 60.1262 15.8446 59.7166 15.5975C59.3071 15.3402 58.8413 15.2115 58.3191 15.2115C57.8072 15.2115 57.3414 15.3402 56.9216 15.5975C56.5121 15.8446 56.1845 16.1894 55.9388 16.632C55.7033 17.0644 55.5856 17.5585 55.5856 18.1143C55.5856 18.6599 55.7033 19.154 55.9388 19.5966C56.1845 20.029 56.5121 20.3738 56.9216 20.6312C57.3414 20.8782 57.8072 21.0017 58.3191 21.0017Z" fill="#2D3958"/>
<path d="M70.3715 22.3914C69.573 22.3914 68.8512 22.2061 68.2062 21.8355C67.5714 21.4547 67.0646 20.94 66.6858 20.2915C66.3172 19.643 66.133 18.9121 66.133 18.0989C66.133 17.2857 66.3019 16.56 66.6397 15.9218C66.9878 15.2733 67.4588 14.7637 68.0526 14.3932C68.6464 14.0123 69.317 13.8218 70.0644 13.8218C70.6684 13.8218 71.2264 13.9505 71.7383 14.2079C72.2502 14.4549 72.6802 14.7946 73.0283 15.2269V11.058C73.0283 10.8212 73.1 10.6308 73.2433 10.4867C73.3969 10.3426 73.5863 10.2705 73.8116 10.2705C74.047 10.2705 74.2364 10.3426 74.3798 10.4867C74.5231 10.6308 74.5948 10.8212 74.5948 11.058V18.0989C74.5948 18.9121 74.4054 19.643 74.0266 20.2915C73.658 20.94 73.1563 21.4547 72.5215 21.8355C71.8868 22.2061 71.1701 22.3914 70.3715 22.3914ZM70.3715 21.0017C70.8937 21.0017 71.3595 20.8782 71.7691 20.6312C72.1786 20.3738 72.5011 20.0238 72.7366 19.5812C72.972 19.1386 73.0898 18.6445 73.0898 18.0989C73.0898 17.543 72.972 17.0489 72.7366 16.6166C72.5011 16.1843 72.1786 15.8446 71.7691 15.5975C71.3595 15.3402 70.8937 15.2115 70.3715 15.2115C69.8596 15.2115 69.3938 15.3402 68.974 15.5975C68.5645 15.8446 68.2369 16.1843 67.9912 16.6166C67.7557 17.0489 67.638 17.543 67.638 18.0989C67.638 18.6445 67.7557 19.1386 67.9912 19.5812C68.2369 20.0238 68.5645 20.3738 68.974 20.6312C69.3938 20.8782 69.8596 21.0017 70.3715 21.0017Z" fill="#2D3958"/>
<path d="M76.9003 25.9427C76.675 25.9427 76.4907 25.8655 76.3474 25.7111C76.2041 25.567 76.1324 25.3817 76.1324 25.1553C76.1324 24.9185 76.2041 24.7281 76.3474 24.584C76.4907 24.4398 76.675 24.3678 76.9003 24.3678C77.5043 24.3678 78.0009 24.1722 78.3899 23.781C78.779 23.3899 78.9735 22.8958 78.9735 22.2987V14.6711C78.9735 14.4343 79.0452 14.2439 79.1885 14.0998C79.3421 13.9557 79.5315 13.8836 79.7567 13.8836C79.9922 13.8836 80.1816 13.9557 80.3249 14.0998C80.4683 14.2439 80.5399 14.4343 80.5399 14.6711V22.2987C80.5399 23.009 80.3812 23.6369 80.0639 24.1825C79.7567 24.7281 79.3318 25.1553 78.7892 25.4641C78.2466 25.7832 77.6169 25.9427 76.9003 25.9427ZM79.7567 12.5094C79.4803 12.5094 79.2397 12.4116 79.0349 12.216C78.8404 12.0102 78.7431 11.7682 78.7431 11.4903C78.7431 11.2124 78.8404 10.9756 79.0349 10.78C79.2397 10.5742 79.4803 10.4712 79.7567 10.4712C80.0331 10.4712 80.2686 10.5742 80.4631 10.78C80.6679 10.9756 80.7703 11.2124 80.7703 11.4903C80.7703 11.7682 80.6679 12.0102 80.4631 12.216C80.2686 12.4116 80.0331 12.5094 79.7567 12.5094Z" fill="#2D3958"/>
<path d="M88.4807 22.3914C87.6309 22.3914 86.8733 22.2112 86.2078 21.851C85.5526 21.4804 85.0355 20.976 84.6567 20.3378C84.2882 19.6893 84.1039 18.9481 84.1039 18.1143C84.1039 17.2703 84.2779 16.5291 84.626 15.8909C84.9844 15.2424 85.4758 14.738 86.1003 14.3777C86.7248 14.0071 87.4415 13.8218 88.2503 13.8218C89.0489 13.8218 89.7349 14.002 90.3082 14.3623C90.8815 14.7123 91.3166 15.2012 91.6135 15.8291C91.9207 16.4468 92.0743 17.1622 92.0743 17.9754C92.0743 18.171 92.0077 18.3357 91.8746 18.4695C91.7415 18.593 91.5726 18.6548 91.3678 18.6548H85.5321C85.6447 19.365 85.9672 19.9466 86.4996 20.3996C87.0422 20.8422 87.7026 21.0635 88.4807 21.0635C88.7981 21.0635 89.1206 21.0069 89.4482 20.8937C89.786 20.7701 90.0574 20.6312 90.2621 20.4768C90.4157 20.3635 90.5795 20.3069 90.7535 20.3069C90.9378 20.2966 91.0965 20.3481 91.2296 20.4613C91.4037 20.6157 91.4958 20.7856 91.5061 20.9709C91.5163 21.1561 91.4344 21.3157 91.2603 21.4495C90.9122 21.7274 90.4771 21.9539 89.955 22.1289C89.4431 22.3039 88.9516 22.3914 88.4807 22.3914ZM88.2503 15.1497C87.4927 15.1497 86.8835 15.3608 86.4228 15.7828C85.9621 16.2049 85.6703 16.7504 85.5475 17.4195H90.6614C90.5693 16.7607 90.3184 16.2203 89.9089 15.7982C89.4994 15.3659 88.9465 15.1497 88.2503 15.1497Z" fill="#2D3958"/>
<path d="M98.8175 22.3296C98.3056 22.3296 97.8449 22.201 97.4354 21.9436C97.0258 21.676 96.7033 21.3157 96.4679 20.8628C96.2324 20.4098 96.1146 19.9003 96.1146 19.3341V15.5203H95.4082C95.1932 15.5203 95.0192 15.4586 94.8861 15.335C94.753 15.2115 94.6864 15.0571 94.6864 14.8718C94.6864 14.6659 94.753 14.5012 94.8861 14.3777C95.0192 14.2542 95.1932 14.1924 95.4082 14.1924H96.1146V11.969C96.1146 11.7425 96.1863 11.5572 96.3297 11.4131C96.473 11.269 96.6573 11.1969 96.8825 11.1969C97.1077 11.1969 97.292 11.269 97.4354 11.4131C97.5787 11.5572 97.6504 11.7425 97.6504 11.969V14.1924H98.9557C99.1707 14.1924 99.3448 14.2542 99.4779 14.3777C99.611 14.5012 99.6775 14.6659 99.6775 14.8718C99.6775 15.0571 99.611 15.2115 99.4779 15.335C99.3448 15.4586 99.1707 15.5203 98.9557 15.5203H97.6504V19.3341C97.6504 19.7459 97.763 20.0907 97.9882 20.3687C98.2135 20.6466 98.4899 20.7856 98.8175 20.7856H99.3397C99.5239 20.7856 99.6775 20.8576 99.8004 21.0017C99.9335 21.1458 100 21.3311 100 21.5576C100 21.7841 99.913 21.9693 99.7389 22.1135C99.5751 22.2576 99.3601 22.3296 99.0939 22.3296H98.8175Z" fill="#2D3958"/>
<path d="M13.771 0.0273705C12.0568 0.0821342 10.5564 0.207314 9.00933 0.418547C7.39232 0.637606 6.42833 0.911427 5.36716 1.44734C4.20493 2.0341 3.0427 3.01204 2.24585 4.07603C0.815416 5.98106 0.310099 7.94867 0.0263435 12.7014C-0.0241882 13.6129 0.0030212 18.792 0.0652141 19.5235C0.267341 21.8941 0.566645 23.5683 0.986447 24.7066C1.76386 26.8111 3.39642 28.6145 5.45268 29.6472C6.50218 30.1752 7.61388 30.4608 9.58073 30.7111C11.5359 30.9576 13.0324 31.0241 16.0838 30.9928C18.4782 30.9693 19.1079 30.938 20.4762 30.7855C22.8706 30.5156 24.0056 30.2457 25.1989 29.6589C25.9647 29.2794 26.4778 28.943 27.088 28.4228C28.775 26.9793 29.7351 25.2777 30.1899 22.9268C30.3532 22.0975 30.4348 21.4912 30.5864 20.0125C30.7108 18.7647 30.7574 14.5361 30.668 12.5332C30.5981 11.0311 30.3143 8.6919 30.0733 7.61226C29.568 5.3982 28.4096 3.60662 26.5944 2.24142C25.2844 1.25566 23.9706 0.751047 21.9455 0.457664C19.3411 0.0821362 16.5191 -0.0665112 13.771 0.0273705Z" fill="white"/>
<path d="M13.771 0.0273705C12.0568 0.0821342 10.5564 0.207314 9.00933 0.418547C7.39232 0.637606 6.42833 0.911427 5.36716 1.44734C4.20493 2.0341 3.0427 3.01204 2.24585 4.07603C0.815416 5.98106 0.310099 7.94867 0.0263435 12.7014C-0.0241882 13.6129 0.0030212 18.792 0.0652141 19.5235C0.267341 21.8941 0.566645 23.5683 0.986447 24.7066C1.76386 26.8111 3.39642 28.6145 5.45268 29.6472C6.50218 30.1752 7.61388 30.4608 9.58073 30.7111C11.5359 30.9576 13.0324 31.0241 16.0838 30.9928C18.4782 30.9693 19.1079 30.938 20.4762 30.7855C22.8706 30.5156 24.0056 30.2457 25.1989 29.6589C25.9647 29.2794 26.4778 28.943 27.088 28.4228C28.775 26.9793 29.7351 25.2777 30.1899 22.9268C30.3532 22.0975 30.4348 21.4912 30.5864 20.0125C30.7108 18.7647 30.7574 14.5361 30.668 12.5332C30.5981 11.0311 30.3143 8.6919 30.0733 7.61226C29.568 5.3982 28.4096 3.60662 26.5944 2.24142C25.2844 1.25566 23.9706 0.751047 21.9455 0.457664C19.3411 0.0821362 16.5191 -0.0665112 13.771 0.0273705ZM20.0291 7.9252C21.0087 8.06602 21.6462 8.67625 21.9766 9.7911C22.0776 10.1275 22.0815 10.1705 22.1165 11.7587C22.1359 12.6506 22.1437 15.4162 22.1359 17.9002L22.1165 22.4182L22.0193 22.7938C21.8716 23.3649 21.5801 23.8812 21.238 24.1863C21.0126 24.3858 20.5928 24.6088 20.2973 24.6871C19.9708 24.7731 19.4305 24.7614 19.0768 24.6636C18.7542 24.5736 18.2294 24.3076 17.9379 24.0886C17.4987 23.7521 17.0711 23.1028 16.8068 22.3674C16.7524 22.2109 16.5735 21.6163 16.4142 21.0452C16.0721 19.8443 15.9749 19.5509 15.7806 19.1715C15.4852 18.5965 14.8671 18.1544 14.2063 18.0488C13.7632 17.9823 13.3434 18.0449 11.8974 18.4087C9.85671 18.9172 9.65847 18.9446 9.05987 18.7999C8.04923 18.5573 7.13577 17.6811 6.94919 16.7775C6.88311 16.4646 6.92198 15.87 7.03082 15.557C7.20185 15.0602 7.70717 14.45 8.25913 14.0784C8.38352 13.9923 8.87717 13.695 9.35917 13.4134C9.84116 13.1317 10.5564 12.7132 10.9529 12.4824C12.014 11.8604 13.53 10.9803 14.5873 10.37C15.1004 10.0728 15.6795 9.74025 15.87 9.62681C18.1012 8.32028 18.4782 8.11687 18.8475 8.02299C19.3217 7.89781 19.6482 7.87043 20.0291 7.9252Z" fill="#6A35FF"/>
</svg>
