<svg width="180" height="107" viewBox="0 0 180 107" fill="none" xmlns="http://www.w3.org/2000/svg">
<path d="M24.0649 55.3436C34.6975 55.3436 42.6689 49.7188 42.6689 39.9999C42.6689 29.7168 35.1662 26.3444 26.7995 24.2579L20.9351 22.8103C15.2296 21.3626 11.631 19.6785 11.631 14.9372C11.631 10.8389 15.2255 8.42888 20.23 8.42888C26.0619 8.42888 30.1168 10.7933 33.3853 17.3555L41.3974 13.4024C37.6481 6.01885 30.398 0 20.7843 0C11.1705 0 2.41261 5.46301 2.41261 15.5843C2.41261 25.7056 10.3066 29.2398 17.7318 30.8451L22.6549 31.9692C29.4566 33.4957 33.6746 34.9434 33.6746 40.1616C33.6746 45.0605 29.4525 46.9894 24.2157 46.9894C17.8052 46.9894 11.5536 43.2934 8.16292 35.3831L0 39.4274C4.06312 48.5034 13.1348 55.3436 24.0649 55.3436Z" fill="#073742"/>
<path d="M60.3274 55.3436C65.605 55.3436 69.1057 52.7759 71.2167 49.1256C71.775 48.1591 73.2259 48.5532 73.2259 49.6732V54.5389H82.0572V15.4225H73.2259V37.3534C73.2259 43.7788 71.0374 48.0347 64.6269 48.0347C58.7625 48.0347 57.2016 44.7411 57.2016 39.9211V15.4225H48.4477V42.6546C48.4477 50.7683 52.9795 55.3477 60.3274 55.3477V55.3436Z" fill="#073742"/>
<path d="M98.4645 54.543V33.0145C98.4645 26.5062 102.528 21.3667 106.909 21.3667C109.488 21.3667 110.503 23.1338 110.503 25.3032C110.503 27.4727 110.03 29.6421 109.448 31.4092H118.047C118.438 29.8412 119.22 27.3939 119.22 23.6191C119.22 17.8367 115.275 14.6219 110.507 14.6219C105.739 14.6219 102.495 17.3348 100.453 21.0888C99.9235 22.0636 98.4686 21.6861 98.4686 20.5703V15.4267H89.7147V54.5471H98.4686L98.4645 54.543Z" fill="#073742"/>
<path d="M132.375 54.543V22.6028H143.477V15.4225H132.375C132.375 15.4225 131.23 7.16372 137.347 7.16372C142.523 7.16372 143.477 12.1621 143.477 12.1621L150.6 8.64043C148.958 4.99013 144.712 0 137.111 0C131.132 0 123.622 3.50097 123.622 16.0987V54.543H132.375Z" fill="#073742"/>
<path d="M162.875 55.3436C171.32 55.3436 176.475 51.407 179.368 46.9105L173.977 41.1281C172.571 44.4217 169.335 47.9559 162.957 47.9559C157.398 47.9559 152.952 44.1811 152.483 37.1916H179.686C179.841 36.3869 180 34.7028 180 33.2551C180 22.412 173.667 14.6178 162.256 14.6178C151.546 14.6178 144.121 22.7314 144.121 35.0222C144.121 47.3129 151.546 55.3436 162.879 55.3436H162.875ZM162.252 21.8479C168.035 21.8479 172.102 25.6683 172.102 30.6957H152.561C152.561 25.7969 156.86 21.8479 162.252 21.8479V21.8479Z" fill="#073742"/>
<path d="M11.3564 96.7305C10.0497 96.7305 8.87139 96.4972 7.82139 96.0305C6.77139 95.5639 5.87305 94.9105 5.12639 94.0705C4.37972 93.2305 3.79639 92.2505 3.37639 91.1305C2.97972 89.9872 2.78139 88.7505 2.78139 87.4205C2.78139 86.0905 2.97972 84.8655 3.37639 83.7455C3.79639 82.6022 4.36805 81.6222 5.09139 80.8055C5.81472 79.9655 6.67805 79.3122 7.68139 78.8455C8.68472 78.3789 9.79305 78.1455 11.0064 78.1455C12.1964 78.1455 13.2814 78.3672 14.2614 78.8105C15.2647 79.2539 16.1281 79.8722 16.8514 80.6655C17.5747 81.4355 18.1347 82.3689 18.5314 83.4655C18.9281 84.5622 19.1264 85.7522 19.1264 87.0355V88.5055H6.59639C6.78305 90.0222 7.29639 91.2472 8.13639 92.1805C8.97639 93.0905 10.0497 93.5455 11.3564 93.5455C11.9864 93.5455 12.5347 93.4639 13.0014 93.3005C13.4681 93.1139 13.8647 92.8805 14.1914 92.6005C14.5414 92.3205 14.8331 92.0172 15.0664 91.6905C15.2997 91.3639 15.4864 91.0489 15.6264 90.7455L19.0914 91.9705C18.8347 92.5072 18.4964 93.0555 18.0764 93.6155C17.6797 94.1755 17.1664 94.6889 16.5364 95.1555C15.9297 95.6222 15.1947 96.0072 14.3314 96.3105C13.4914 96.5905 12.4997 96.7305 11.3564 96.7305ZM11.0064 81.3305C9.86305 81.3305 8.92972 81.7272 8.20639 82.5205C7.48305 83.2905 6.99305 84.3055 6.73639 85.5655H15.2064C15.1364 84.9822 14.9964 84.4339 14.7864 83.9205C14.5764 83.4072 14.2964 82.9639 13.9464 82.5905C13.5964 82.1939 13.1764 81.8905 12.6864 81.6805C12.1964 81.4472 11.6364 81.3305 11.0064 81.3305ZM20.7337 96.3105L26.9637 86.8255L21.2937 78.5655H25.7037L29.2737 83.9905L32.5987 78.5655H36.7637L31.5137 86.5455L38.3037 96.3105H33.8937L29.2037 89.3805L24.8637 96.3105H20.7337ZM39.5434 84.4105H50.7784V87.8405H39.5434V84.4105ZM56.4837 72.0905H60.5787V92.8455H72.9337V96.3105H56.4837V72.0905ZM83.3388 96.7305C82.0321 96.7305 80.8538 96.4972 79.8038 96.0305C78.7538 95.5639 77.8555 94.9105 77.1088 94.0705C76.3621 93.2305 75.7788 92.2505 75.3588 91.1305C74.9621 89.9872 74.7638 88.7505 74.7638 87.4205C74.7638 86.0905 74.9621 84.8655 75.3588 83.7455C75.7788 82.6022 76.3505 81.6222 77.0738 80.8055C77.7971 79.9655 78.6605 79.3122 79.6638 78.8455C80.6671 78.3789 81.7755 78.1455 82.9888 78.1455C84.1788 78.1455 85.2638 78.3672 86.2438 78.8105C87.2471 79.2539 88.1105 79.8722 88.8338 80.6655C89.5571 81.4355 90.1171 82.3689 90.5138 83.4655C90.9105 84.5622 91.1088 85.7522 91.1088 87.0355V88.5055H78.5788C78.7655 90.0222 79.2788 91.2472 80.1188 92.1805C80.9588 93.0905 82.0321 93.5455 83.3388 93.5455C83.9688 93.5455 84.5171 93.4639 84.9838 93.3005C85.4505 93.1139 85.8471 92.8805 86.1738 92.6005C86.5238 92.3205 86.8155 92.0172 87.0488 91.6905C87.2821 91.3639 87.4688 91.0489 87.6088 90.7455L91.0738 91.9705C90.8171 92.5072 90.4788 93.0555 90.0588 93.6155C89.6621 94.1755 89.1488 94.6889 88.5188 95.1555C87.9121 95.6222 87.1771 96.0072 86.3138 96.3105C85.4738 96.5905 84.4821 96.7305 83.3388 96.7305ZM82.9888 81.3305C81.8455 81.3305 80.9121 81.7272 80.1888 82.5205C79.4655 83.2905 78.9755 84.3055 78.7188 85.5655H87.1888C87.1188 84.9822 86.9788 84.4339 86.7688 83.9205C86.5588 83.4072 86.2788 82.9639 85.9288 82.5905C85.5788 82.1939 85.1588 81.8905 84.6688 81.6805C84.1788 81.4472 83.6188 81.3305 82.9888 81.3305ZM100.298 96.7305C98.3846 96.7305 96.8679 96.2405 95.7479 95.2605C94.6513 94.2805 94.1029 93.0089 94.1029 91.4455C94.1029 89.8589 94.5929 88.6222 95.5729 87.7355C96.5529 86.8255 98.0463 86.1839 100.053 85.8105L103.763 85.1105C104.37 84.9939 104.813 84.8189 105.093 84.5855C105.396 84.3289 105.548 83.9555 105.548 83.4655C105.548 82.8589 105.303 82.3339 104.813 81.8905C104.346 81.4239 103.576 81.1905 102.503 81.1905C101.43 81.1905 100.59 81.4472 99.9829 81.9605C99.3996 82.4739 99.0146 83.2205 98.8279 84.2005L95.1879 83.5005C95.6313 81.7972 96.4479 80.4789 97.6379 79.5455C98.8279 78.6122 100.485 78.1455 102.608 78.1455C104.801 78.1455 106.481 78.6355 107.648 79.6155C108.815 80.5722 109.398 81.9022 109.398 83.6055V91.8305C109.398 92.8572 109.911 93.3705 110.938 93.3705C111.265 93.3705 111.545 93.3239 111.778 93.2305C112.011 93.1139 112.186 93.0089 112.303 92.9155L113.283 95.7155C112.98 95.9022 112.548 96.1005 111.988 96.3105C111.428 96.4972 110.775 96.5905 110.028 96.5905C109.025 96.5905 108.15 96.3689 107.403 95.9255C106.68 95.4589 106.155 94.7822 105.828 93.8955C105.291 94.6655 104.591 95.3305 103.728 95.8905C102.865 96.4505 101.721 96.7305 100.298 96.7305ZM105.548 87.1055C105.361 87.2922 105.128 87.4439 104.848 87.5605C104.591 87.6772 104.3 87.7589 103.973 87.8055L100.788 88.4355C99.8079 88.6222 99.0846 88.9372 98.6179 89.3805C98.1746 89.8005 97.9529 90.3839 97.9529 91.1305C97.9529 91.8772 98.2096 92.4955 98.7229 92.9855C99.2596 93.4522 100.041 93.6855 101.068 93.6855C101.675 93.6855 102.246 93.5922 102.783 93.4055C103.32 93.1955 103.786 92.8922 104.183 92.4955C104.58 92.0989 104.895 91.6089 105.128 91.0255C105.385 90.4189 105.525 89.7305 105.548 88.9605V87.1055ZM128.096 96.3105V93.5105C127.56 94.4905 126.836 95.2722 125.926 95.8555C125.016 96.4389 123.873 96.7305 122.496 96.7305C121.353 96.7305 120.291 96.5089 119.311 96.0655C118.331 95.5989 117.48 94.9572 116.756 94.1405C116.033 93.3005 115.461 92.3205 115.041 91.2005C114.645 90.0572 114.446 88.7972 114.446 87.4205C114.446 86.0672 114.645 84.8305 115.041 83.7105C115.461 82.5672 116.033 81.5872 116.756 80.7705C117.48 79.9305 118.331 79.2889 119.311 78.8455C120.291 78.3789 121.353 78.1455 122.496 78.1455C123.873 78.1455 125.016 78.4489 125.926 79.0555C126.836 79.6389 127.56 80.4089 128.096 81.3655V71.6355H131.981V96.3105H128.096ZM123.231 93.4755C123.931 93.4755 124.573 93.3355 125.156 93.0555C125.74 92.7522 126.241 92.3555 126.661 91.8655C127.081 91.3522 127.42 90.7455 127.676 90.0455C127.933 89.3222 128.073 88.5405 128.096 87.7005V87.1755C128.073 86.3355 127.933 85.5655 127.676 84.8655C127.42 84.1655 127.081 83.5589 126.661 83.0455C126.241 82.5322 125.74 82.1355 125.156 81.8555C124.573 81.5522 123.931 81.4005 123.231 81.4005C122.531 81.4005 121.878 81.5522 121.271 81.8555C120.665 82.1589 120.14 82.5789 119.696 83.1155C119.276 83.6522 118.938 84.2939 118.681 85.0405C118.448 85.7639 118.331 86.5572 118.331 87.4205C118.331 88.3072 118.448 89.1239 118.681 89.8705C118.938 90.5939 119.276 91.2239 119.696 91.7605C120.14 92.2972 120.665 92.7172 121.271 93.0205C121.878 93.3239 122.531 93.4755 123.231 93.4755ZM135.9 103.871C134.92 103.871 134.068 103.754 133.345 103.521C132.598 103.287 132.026 103.042 131.63 102.786L133.24 99.8105C133.473 99.9972 133.788 100.184 134.185 100.371C134.581 100.557 135.06 100.651 135.62 100.651C137.113 100.651 137.86 99.8455 137.86 98.2355V78.5655H141.78V98.2355C141.78 99.9855 141.278 101.362 140.275 102.366C139.271 103.369 137.813 103.871 135.9 103.871ZM139.82 75.9055C139.096 75.9055 138.501 75.6722 138.035 75.2055C137.568 74.7155 137.335 74.1205 137.335 73.4205C137.335 72.7205 137.568 72.1372 138.035 71.6705C138.501 71.1805 139.096 70.9355 139.82 70.9355C140.52 70.9355 141.103 71.1805 141.57 71.6705C142.06 72.1372 142.305 72.7205 142.305 73.4205C142.305 74.1205 142.06 74.7155 141.57 75.2055C141.103 75.6722 140.52 75.9055 139.82 75.9055ZM154.774 96.7305C153.468 96.7305 152.289 96.4972 151.239 96.0305C150.189 95.5639 149.291 94.9105 148.544 94.0705C147.798 93.2305 147.214 92.2505 146.794 91.1305C146.398 89.9872 146.199 88.7505 146.199 87.4205C146.199 86.0905 146.398 84.8655 146.794 83.7455C147.214 82.6022 147.786 81.6222 148.509 80.8055C149.233 79.9655 150.096 79.3122 151.099 78.8455C152.103 78.3789 153.211 78.1455 154.424 78.1455C155.614 78.1455 156.699 78.3672 157.679 78.8105C158.683 79.2539 159.546 79.8722 160.269 80.6655C160.993 81.4355 161.553 82.3689 161.949 83.4655C162.346 84.5622 162.544 85.7522 162.544 87.0355V88.5055H150.014C150.201 90.0222 150.714 91.2472 151.554 92.1805C152.394 93.0905 153.468 93.5455 154.774 93.5455C155.404 93.5455 155.953 93.4639 156.419 93.3005C156.886 93.1139 157.283 92.8805 157.609 92.6005C157.959 92.3205 158.251 92.0172 158.484 91.6905C158.718 91.3639 158.904 91.0489 159.044 90.7455L162.509 91.9705C162.253 92.5072 161.914 93.0555 161.494 93.6155C161.098 94.1755 160.584 94.6889 159.954 95.1555C159.348 95.6222 158.613 96.0072 157.749 96.3105C156.909 96.5905 155.918 96.7305 154.774 96.7305ZM154.424 81.3305C153.281 81.3305 152.348 81.7272 151.624 82.5205C150.901 83.2905 150.411 84.3055 150.154 85.5655H158.624C158.554 84.9822 158.414 84.4339 158.204 83.9205C157.994 83.4072 157.714 82.9639 157.364 82.5905C157.014 82.1939 156.594 81.8905 156.104 81.6805C155.614 81.4472 155.054 81.3305 154.424 81.3305ZM164.671 78.5655H168.276V73.5255H172.161V78.5655H178.251V81.7155H172.161V90.6405C172.161 91.5739 172.406 92.2855 172.896 92.7755C173.386 93.2422 174.051 93.4755 174.891 93.4755C175.638 93.4755 176.244 93.3472 176.711 93.0905C177.201 92.8105 177.609 92.5189 177.936 92.2155L179.791 94.7355C179.254 95.2022 178.531 95.6572 177.621 96.1005C176.734 96.5205 175.626 96.7305 174.296 96.7305C172.523 96.7305 171.076 96.2522 169.956 95.2955C168.836 94.3389 168.276 92.8922 168.276 90.9555V81.7155H164.671V78.5655Z" fill="#889BA0"/>
</svg>
