<svg width="144" height="25" viewBox="0 0 144 25" fill="none" xmlns="http://www.w3.org/2000/svg">
<g clip-path="url(#clip0_1861_5553)">
<path d="M36.1221 18.3607C36.8505 18.0026 37.61 17.9048 38.3323 17.8034C38.7492 17.7581 39.1434 17.7535 39.5561 17.7507C40.1402 17.7216 40.7201 17.735 41.3145 17.7927C42.4331 17.8583 43.5331 17.9222 44.6476 18.0303C46.8579 18.2448 49.0724 18.4167 51.326 18.3782C53.654 18.3468 55.9634 18.3136 58.2913 18.2823C60.4892 18.2383 62.6872 18.1943 64.8954 18.2371C67.0892 18.2355 69.2975 18.2783 71.4996 18.1919C73.7615 18.0683 76.0069 18.1147 78.2482 18.2035C79.3151 18.2213 80.3821 18.2391 81.4656 18.087C82.0352 18.0136 82.5903 17.896 83.164 17.7802C83.7192 17.6626 84.2661 17.6299 84.8171 17.5547C85.331 17.476 85.8098 17.5653 86.3031 17.6989C86.6642 17.6482 86.984 17.2505 87.2398 16.5465C87.378 16.0883 87.5307 15.6744 87.6689 15.2162C87.97 14.045 88.1824 12.8223 88.2874 11.5464C88.4111 10.2722 88.4563 9.0333 88.3859 7.82606C88.3384 7.34986 88.2681 6.91432 88.2206 6.43812C88.1049 5.69807 87.8819 5.29059 87.5228 5.12713C87.2401 5.14257 86.9718 5.20229 86.6891 5.21773C86.4435 5.23677 86.1834 5.21154 85.942 5.18811C85.4033 5.13585 84.8791 5.12786 84.3363 5.11807C83.2136 5.09489 82.1012 5.15845 80.9785 5.13527C78.8115 5.05363 76.6528 4.88706 74.4879 4.97712C73.3198 5.03527 72.1517 5.09343 70.9877 5.10911C69.9352 5.13561 68.8682 5.11783 67.8198 5.10185C65.5744 5.05549 63.3207 5.09406 61.0671 5.13264C58.8506 5.17482 56.6155 5.21519 54.399 5.25738C53.1793 5.26765 51.9369 5.3186 50.7172 5.32888C49.6089 5.34997 48.5316 5.24544 47.4316 5.18159C45.1986 5.0078 42.9655 4.83402 40.7077 4.91507C40.1423 4.94595 39.5954 4.97863 39.0402 5.09625C38.5821 5.18042 38.1198 5.30706 37.672 5.47797C37.3212 5.61542 36.9621 5.83781 36.6216 6.06201C36.4235 6.1714 36.213 6.40822 36.0211 6.64683C35.6291 7.209 35.332 7.95188 35.1114 8.87365C34.6411 10.6286 34.3979 12.7486 34.3466 14.63C34.3138 15.7415 34.3779 16.8196 34.5473 17.7792C34.6485 18.0891 34.7497 18.399 34.8508 18.7089C35.1068 19.1625 35.404 19.1913 35.7238 18.7936C35.8146 18.6309 35.9797 18.4755 36.1221 18.3607Z" fill="#FFDEF7" fill-opacity="0.6"/>
</g>
<path d="M12.9279 17.2321C12.9279 17.2001 12.8479 17.0081 12.7199 16.6721C12.5759 16.3361 12.3839 16.1121 12.1599 16.0161C11.8079 15.4401 11.5199 14.4641 11.2799 13.1201C11.1839 12.5601 11.0239 11.4561 10.8319 9.82408C10.6399 8.25608 10.3999 7.00808 10.0799 6.04808C9.96792 5.71208 9.75992 5.53608 9.47192 5.53608C9.21592 5.53608 9.03992 5.64808 8.92792 5.85608C8.06392 7.39208 7.31192 9.29608 6.67192 11.5841C5.69592 10.2561 4.86392 8.12808 4.15992 5.20008C4.06392 4.83208 3.85592 4.64008 3.53592 4.64008C3.23192 4.64008 3.02392 4.76808 2.91192 5.00808C2.67192 5.52008 2.43192 6.09608 2.20792 6.75208C2.04792 6.65608 1.90392 6.60808 1.77592 6.60808C1.34392 6.60808 1.13592 6.83208 1.13592 7.24808C1.13592 7.37608 1.13592 7.53608 1.15192 7.72808C1.15192 7.95208 1.16792 8.11208 1.16792 8.22408C1.16792 8.80008 1.10392 9.52008 1.00792 10.4161C0.879918 11.6161 0.815918 12.3681 0.815918 12.6881C0.815918 13.2961 0.863918 13.8561 0.991918 14.3361C1.16792 14.9761 1.42392 15.2961 1.74392 15.2961C2.12792 15.2961 2.31992 14.9761 2.35192 14.3361C2.38392 13.1521 2.46392 12.0321 2.59192 10.9921C2.73592 9.79208 2.99192 8.51208 3.35992 7.15208C3.55192 8.11208 3.91992 9.16808 4.46392 10.3201C5.02392 11.5681 5.59992 12.4801 6.19192 13.0881C6.47992 13.4081 6.75192 13.5521 6.99192 13.5521C7.31192 13.5521 7.53592 13.3441 7.63192 12.8961C7.96792 11.4241 8.51192 9.74408 9.24792 7.88808C9.55192 10.5121 9.74392 12.0801 9.83992 12.6081C10.1599 14.5281 10.6079 15.9841 11.1519 16.9441C11.5039 17.5841 11.8719 17.9201 12.2399 17.9201C12.4159 17.9201 12.5759 17.8401 12.7199 17.7121C12.8479 17.5521 12.9279 17.3921 12.9279 17.2321Z" fill="#EA75CF"/>
<path d="M18.8098 12.4801C18.8098 11.8561 18.6338 11.2801 18.2818 10.7681C17.9138 10.2721 17.4498 9.92008 16.8898 9.72808C16.6658 9.66408 16.5378 9.63208 16.5058 9.63208C16.3778 9.63208 16.2338 9.71208 16.0418 9.84008C15.8178 9.96808 15.6418 10.0641 15.5138 10.1121C14.9698 10.3841 14.5218 10.8641 14.2018 11.5361C13.8818 12.1441 13.7378 12.8001 13.7378 13.4881C13.7378 14.3041 13.9458 14.9761 14.3938 15.5041C14.8418 16.0161 15.4018 16.2881 16.0738 16.2881C16.8418 16.2881 17.4978 15.9361 18.0258 15.2001C18.5378 14.4641 18.8098 13.5681 18.8098 12.4801ZM17.5458 12.7201C17.5458 13.2641 17.3858 13.7601 17.0978 14.2241C16.7778 14.7041 16.4418 14.9441 16.0578 14.9441C15.7378 14.9441 15.4818 14.8001 15.2898 14.4961C15.0818 14.2081 14.9858 13.8721 14.9858 13.4881C14.9858 12.9761 15.0978 12.4961 15.3538 12.0481C15.6418 11.5361 16.0098 11.2641 16.4578 11.2641C16.6178 11.3601 16.8258 11.4081 17.0818 11.4081C17.3858 11.6001 17.5458 12.0481 17.5458 12.7201Z" fill="#EA75CF"/>
<path d="M25.0165 10.1921C25.0165 10.0801 24.9845 9.95208 24.9205 9.82408C24.8565 9.34408 24.4565 9.10408 23.7205 9.10408C23.2405 9.10408 22.9365 9.24808 22.7765 9.50408C22.0245 9.77608 21.6565 10.2881 21.6565 11.0241C21.6565 11.4721 21.8485 12.1921 22.2325 13.1521C22.6165 14.1121 22.8245 14.7201 22.8245 14.9441C22.8245 15.3281 22.5525 15.5041 22.0245 15.5041C21.8325 15.5041 21.5605 15.4881 21.2405 15.4401C20.9205 15.4081 20.7445 15.3761 20.7125 15.3761C20.5685 15.3761 20.4405 15.4721 20.3445 15.6321C20.2165 15.7921 20.1685 15.9681 20.1685 16.1441C20.1685 16.5921 20.7285 16.8321 21.8805 16.8321C22.5845 16.8321 23.1445 16.6721 23.5605 16.3681C23.9285 16.0641 24.1205 15.6961 24.1205 15.2321C24.1205 14.7521 23.9125 14.0001 23.5285 12.9921C23.1285 12.0001 22.9365 11.4081 22.9365 11.2161C22.9365 10.9121 23.1445 10.7521 23.5605 10.7521C23.6565 10.7521 23.8005 10.7681 23.9925 10.7681C24.1845 10.8001 24.3285 10.8001 24.4085 10.8001C24.5685 10.8001 24.7125 10.7521 24.8405 10.6241C24.9525 10.5281 25.0165 10.3841 25.0165 10.1921Z" fill="#EA75CF"/>
<path d="M31.7883 10.3841C31.7883 9.87208 31.3243 9.60008 30.3963 9.55208C29.7243 9.53608 29.3243 9.52008 29.2123 9.52008C29.4363 8.46408 29.6443 7.61608 29.8363 6.96008C29.9803 6.51208 30.1083 6.12808 30.2043 5.79208C30.1563 5.31208 29.9323 5.07208 29.5163 5.07208C29.2283 5.07208 29.0363 5.24808 28.9403 5.58408C28.6523 6.54408 28.3003 7.85608 27.8843 9.55208C27.5003 9.55208 27.2603 9.60008 27.1323 9.66408C26.9403 9.76008 26.8443 9.95208 26.8443 10.2401C26.8443 10.7041 27.0843 10.9281 27.5803 10.9281L27.1003 13.2321C26.8923 14.2721 26.7963 15.0401 26.7963 15.5201C26.7963 16.3841 27.0523 16.8321 27.5803 16.8321C27.7403 16.8321 27.8843 16.7681 28.0443 16.6401C28.1883 16.4961 28.2683 16.3521 28.2683 16.1921C28.2683 15.9361 28.1883 15.7601 28.0283 15.6321C28.0603 14.9281 28.1563 14.1121 28.3483 13.2161C28.4123 12.9121 28.5883 12.1441 28.8763 10.8961C29.0363 10.8961 29.3243 10.9121 29.7723 10.9121C30.2203 10.9281 30.4923 10.9281 30.6043 10.9281C30.7643 11.0881 30.9723 11.1521 31.1963 11.1521C31.3403 11.1521 31.4843 11.0721 31.6123 10.9121C31.7243 10.7521 31.7883 10.5761 31.7883 10.3841Z" fill="#EA75CF"/>
<path d="M43.8579 10.4641C43.8579 9.69608 43.6819 9.05608 43.3299 8.54408C42.9459 7.98408 42.3859 7.69608 41.6819 7.69608C40.6739 7.69608 39.8899 8.40008 39.3299 9.80808C38.9459 10.7841 38.7539 11.9041 38.7539 13.1521C38.7539 13.3121 38.7539 13.4401 38.7699 13.5201C38.3219 13.6801 38.1139 13.9201 38.1139 14.2561C38.1139 14.6721 38.3219 14.8961 38.7699 14.9281C38.8019 15.1841 38.8179 15.5681 38.8179 16.0801C38.8179 17.1041 38.7539 17.8241 38.6579 18.2721C38.5459 18.7041 38.4979 18.9441 38.4979 18.9921C38.4979 19.1681 38.5619 19.3281 38.6899 19.4721C38.8179 19.6001 38.9779 19.6801 39.1539 19.6801C39.4899 19.6801 39.7299 19.3441 39.8739 18.6881C40.0339 17.9521 40.1139 17.2001 40.1139 16.4641C40.1139 15.7921 40.0819 15.1361 40.0339 14.4961C42.5779 13.5681 43.8579 12.2241 43.8579 10.4641ZM42.5779 10.1921C42.5779 11.5041 41.7299 12.4641 40.0499 13.0721C40.0499 12.2081 40.1939 11.3281 40.4979 10.4641C40.8339 9.52008 41.2339 9.04008 41.6819 9.04008C41.9539 9.04008 42.1779 9.16808 42.3539 9.39208C42.4979 9.61608 42.5779 9.88808 42.5779 10.1921Z" fill="#EA75CF"/>
<path d="M50.5129 12.4801C50.5129 11.8561 50.3369 11.2801 49.9849 10.7681C49.6169 10.2721 49.1529 9.92008 48.5929 9.72808C48.3689 9.66408 48.2409 9.63208 48.2089 9.63208C48.0809 9.63208 47.9369 9.71208 47.7449 9.84008C47.5209 9.96808 47.3449 10.0641 47.2169 10.1121C46.6729 10.3841 46.2249 10.8641 45.9049 11.5361C45.5849 12.1441 45.4409 12.8001 45.4409 13.4881C45.4409 14.3041 45.6489 14.9761 46.0969 15.5041C46.5449 16.0161 47.1049 16.2881 47.7769 16.2881C48.5449 16.2881 49.2009 15.9361 49.7289 15.2001C50.2409 14.4641 50.5129 13.5681 50.5129 12.4801ZM49.2489 12.7201C49.2489 13.2641 49.0889 13.7601 48.8009 14.2241C48.4809 14.7041 48.1449 14.9441 47.7609 14.9441C47.4409 14.9441 47.1849 14.8001 46.9929 14.4961C46.7849 14.2081 46.6889 13.8721 46.6889 13.4881C46.6889 12.9761 46.8009 12.4961 47.0569 12.0481C47.3449 11.5361 47.7129 11.2641 48.1609 11.2641C48.3209 11.3601 48.5289 11.4081 48.7849 11.4081C49.0889 11.6001 49.2489 12.0481 49.2489 12.7201Z" fill="#EA75CF"/>
<path d="M57.9517 10.4641C57.9517 9.69608 57.7757 9.05608 57.4237 8.54408C57.0397 7.98408 56.4797 7.69608 55.7757 7.69608C54.7677 7.69608 53.9837 8.40008 53.4237 9.80808C53.0397 10.7841 52.8477 11.9041 52.8477 13.1521C52.8477 13.3121 52.8477 13.4401 52.8637 13.5201C52.4157 13.6801 52.2077 13.9201 52.2077 14.2561C52.2077 14.6721 52.4157 14.8961 52.8637 14.9281C52.8957 15.1841 52.9117 15.5681 52.9117 16.0801C52.9117 17.1041 52.8477 17.8241 52.7517 18.2721C52.6397 18.7041 52.5917 18.9441 52.5917 18.9921C52.5917 19.1681 52.6557 19.3281 52.7837 19.4721C52.9117 19.6001 53.0717 19.6801 53.2477 19.6801C53.5837 19.6801 53.8237 19.3441 53.9677 18.6881C54.1277 17.9521 54.2077 17.2001 54.2077 16.4641C54.2077 15.7921 54.1757 15.1361 54.1277 14.4961C56.6717 13.5681 57.9517 12.2241 57.9517 10.4641ZM56.6717 10.1921C56.6717 11.5041 55.8237 12.4641 54.1437 13.0721C54.1437 12.2081 54.2877 11.3281 54.5917 10.4641C54.9277 9.52008 55.3277 9.04008 55.7757 9.04008C56.0477 9.04008 56.2717 9.16808 56.4477 9.39208C56.5917 9.61608 56.6717 9.88808 56.6717 10.1921Z" fill="#EA75CF"/>
<path d="M66.2707 10.6881C66.2707 10.2401 66.0787 10.0161 65.6947 10.0161C65.5027 10.0161 65.3427 10.1281 65.1827 10.3521C63.1667 13.3121 61.7907 14.7841 61.0387 14.7841C60.9107 14.7841 60.8467 14.7201 60.8467 14.5921C60.8467 14.3361 60.9427 13.7441 61.1507 12.7841C61.3427 11.8561 61.4387 11.2321 61.4387 10.9441C61.4387 10.2721 61.2147 9.92008 60.7827 9.92008C60.6227 9.92008 60.4947 10.0001 60.3827 10.1601C60.2547 10.3201 60.1907 10.4801 60.1907 10.6401C60.1907 10.6881 60.1907 10.7521 60.2067 10.8161C60.2067 10.9121 60.2067 10.9601 60.2067 10.9921C60.2067 11.2481 60.0787 11.9361 59.8547 13.0721C59.6307 14.0481 59.5347 14.6881 59.5347 15.0081C59.5347 15.3921 59.6627 15.6801 59.9187 15.8881C60.1587 16.0801 60.4627 16.1761 60.8467 16.1761C61.6947 16.1761 62.8947 15.2801 64.4627 13.4721C64.3347 14.5281 64.2707 15.1841 64.2707 15.4561C64.1907 15.5841 64.1587 15.6961 64.1587 15.8241C64.1587 16.0161 64.2387 16.1601 64.3987 16.2561C64.5427 16.3521 64.7187 16.4161 64.9107 16.4161C65.1347 16.4161 65.3107 16.3201 65.4387 16.1281C65.5667 15.9521 65.6307 15.7441 65.6307 15.5041C65.6307 15.4561 65.6147 15.3281 65.5827 15.1201C65.5507 14.9281 65.5347 14.7681 65.5347 14.6401C65.5347 14.4161 65.5987 13.8881 65.7427 13.0561C65.9027 12.1441 66.0307 11.5201 66.1587 11.1841C66.2227 10.9601 66.2707 10.8001 66.2707 10.6881Z" fill="#EA75CF"/>
<path d="M70.7175 5.18408C70.7175 4.99208 70.5735 4.76808 70.3175 4.48008C70.0615 4.22408 69.8375 4.08008 69.6455 4.08008C69.4375 4.08008 69.2455 4.38408 69.0695 4.96008C68.4455 6.94408 68.1415 8.99208 68.1415 11.1041C68.1415 11.6481 68.1735 12.4001 68.2375 13.3601C68.1255 13.5521 68.0775 13.9041 68.0775 14.4001C68.0775 14.9441 68.1895 15.4401 68.4295 15.9041C68.6535 16.3681 68.9255 16.6081 69.2455 16.6081C69.3255 16.6081 69.4215 16.5601 69.5335 16.4641C69.6295 16.3841 69.6935 16.3041 69.6935 16.2241C69.6935 16.1761 69.6775 16.0801 69.6615 15.9521C69.6295 15.8081 69.6295 15.7121 69.6295 15.6481C69.4695 13.6961 69.3895 12.3201 69.3895 11.5521C69.3895 9.71208 69.6295 7.87208 70.1095 6.03208L70.2215 5.87208C70.5415 5.71208 70.7175 5.48808 70.7175 5.18408Z" fill="#EA75CF"/>
<path d="M77.6552 12.2881C77.6552 12.1441 77.5752 11.9841 77.4472 11.8241C77.4472 11.4561 77.3832 11.1361 77.2872 10.8481C77.3032 10.7841 77.3192 10.7041 77.3192 10.6241C77.3192 10.4321 77.2072 10.2401 77.0152 10.0801C76.8072 9.92008 76.5992 9.82408 76.3912 9.82408C75.5112 9.82408 74.5512 10.3361 73.4952 11.3281C72.3912 12.3521 71.8472 13.3441 71.8472 14.2721C71.8472 14.7681 72.0072 15.2001 72.3592 15.5841C72.6952 15.9841 73.0952 16.1761 73.5592 16.1761C74.2792 16.1761 75.0792 15.7281 75.9752 14.8321C76.0552 16.0481 76.3272 16.6721 76.7912 16.6721C76.9512 16.6721 77.1112 16.6081 77.2552 16.5121C77.3832 16.3841 77.4632 16.2241 77.4632 16.0641C77.4632 16.0161 77.4152 15.8241 77.3512 15.4401C77.2712 15.0721 77.2392 14.7841 77.2392 14.5921C77.2392 13.9521 77.3352 13.3121 77.5592 12.6401C77.6232 12.4641 77.6552 12.3521 77.6552 12.2881ZM76.1992 11.8241C76.1992 12.3681 75.8792 13.0081 75.2712 13.7441C74.6632 14.4801 74.1032 14.8321 73.6232 14.8321C73.2872 14.8321 73.1272 14.6401 73.1272 14.2401C73.1272 13.7281 73.5272 13.0881 74.3432 12.3041C75.0792 11.6001 75.6072 11.2321 75.9112 11.2321C76.1032 11.2321 76.1992 11.4401 76.1992 11.8241Z" fill="#EA75CF"/>
<path d="M85.2207 10.5121C85.2207 10.2881 85.1247 10.0801 84.9487 9.88808C84.7567 9.69608 84.5647 9.60008 84.3567 9.60008C83.1087 9.60008 81.9887 10.3361 81.0127 11.8081C80.9167 11.1361 80.8047 10.6561 80.6767 10.3681C80.5007 10.0481 80.2607 9.87208 79.9567 9.87208C79.8287 9.87208 79.7167 9.95208 79.6367 10.0801C79.5407 10.2401 79.4927 10.4001 79.4927 10.5601C79.4927 11.2641 79.6367 11.8241 79.9247 12.2241C79.9887 12.8481 80.0367 13.3601 80.0367 13.7441C80.0367 14.1761 79.9887 14.5601 79.9087 14.9121C79.8127 15.2961 79.7807 15.5041 79.7807 15.5521C79.7807 15.8241 79.8447 16.0481 80.0047 16.2561C80.1647 16.4481 80.3567 16.5601 80.5487 16.5601C80.7407 16.5601 80.9007 16.4161 80.9967 16.1281C81.0447 15.9681 81.1087 15.6321 81.1887 15.1201C81.4767 13.1681 82.2767 11.8721 83.5727 11.2321C83.7647 11.2961 83.8607 11.3281 83.8767 11.3281C84.1327 11.3281 84.4207 11.2481 84.7407 11.0561C85.0607 10.8961 85.2207 10.7041 85.2207 10.5121Z" fill="#EA75CF"/>
<path d="M94.1241 12.8328C104.665 14.3384 111.83 11.6568 114.835 5.95094C115.438 4.8071 116.456 1.86224 114.601 1.21564C112.972 0.648204 110.877 2.28076 109.659 4.32105C108.839 5.69563 105.444 12.1047 111.017 13.5919C117.084 15.2109 125.093 13.5773 131.031 11.9015C133.912 11.0887 137.314 9.88708 139.846 8.29245C141.527 7.23389 139.87 7.61454 138.601 7.64655C136.797 7.69208 132.506 7.60079 136.5 7.5C138.123 7.45905 140.016 7.36038 141.462 6.91587C143.007 6.44063 140.694 8.29541 140.469 8.63421C139.759 9.70232 138.965 11.4206 138.998 12.7164" stroke="#EA75CF" stroke-linecap="round"/>
<defs>
<clipPath id="clip0_1861_5553">
<rect width="53.4647" height="18.9249" fill="white" transform="translate(35.5781 0.0874023) rotate(5.54166)"/>
</clipPath>
</defs>
</svg>
