<svg width="24" height="24" viewBox="0 0 24 24" fill="none" xmlns="http://www.w3.org/2000/svg">
<rect width="24" height="24" rx="3" fill="#FFEBFA"/>
<path fill-rule="evenodd" clip-rule="evenodd" d="M12.2097 4.97092C8.3522 4.97092 5.22505 8.11771 5.22505 11.9995C5.22505 15.8813 8.3522 19.0281 12.2097 19.0281C16.0673 19.0281 19.1944 15.8813 19.1944 11.9995C19.1944 8.11771 16.0673 4.97092 12.2097 4.97092ZM3.86218 11.9995C3.86218 7.3603 7.59951 3.59949 12.2097 3.59949C16.82 3.59949 20.5573 7.3603 20.5573 11.9995C20.5573 16.6387 16.82 20.3995 12.2097 20.3995C7.59951 20.3995 3.86218 16.6387 3.86218 11.9995Z" fill="#EA75CF"/>
<path fill-rule="evenodd" clip-rule="evenodd" d="M15.4211 9.60197C15.6707 9.8448 15.6834 10.2516 15.4494 10.5106L11.9648 14.3678C11.7352 14.6219 11.3522 14.64 11.1013 14.4086L9.01054 12.48C8.75483 12.2441 8.7318 11.8378 8.95909 11.5724C9.18639 11.3071 9.57795 11.2832 9.83366 11.5191L11.4735 13.0317L14.5455 9.63128C14.7795 9.37227 15.1715 9.35915 15.4211 9.60197Z" fill="#EA75CF"/>
</svg>
