<svg width="70" height="70" viewBox="0 0 70 70" fill="none" xmlns="http://www.w3.org/2000/svg">
<path d="M36.9751 42.7631C32.5931 42.7631 28.3198 40.0879 26.0021 34.3619L20.4167 37.2895C23.1941 43.8591 29.3951 48.8103 36.8664 48.8103C44.3378 48.8103 49.5833 44.7388 49.5833 37.7038C49.5833 30.2604 44.4548 27.8193 38.7357 26.309L34.727 25.2612C30.827 24.2133 28.3672 22.9942 28.3672 19.5623C28.3672 16.5957 30.8242 14.8512 34.2451 14.8512C38.2315 14.8512 41.0033 16.5627 43.2374 21.3128L48.7142 18.4513C46.1541 13.1067 41.1955 8.75 34.6239 8.75C28.0524 8.75 22.0658 12.7044 22.0658 20.0307C22.0658 27.3569 27.4618 29.9151 32.5374 31.0771L35.9026 31.8908C40.552 32.9958 43.4352 34.0437 43.4352 37.8209C43.4352 41.367 40.5492 42.7631 36.9695 42.7631H36.9751Z" fill="#073742"/>
<path d="M48.7058 54.7402H22.0603V61.2498H48.7058V54.7402Z" fill="#073742"/>
</svg>
