<svg width="113" height="35" viewBox="0 0 113 35" fill="none" xmlns="http://www.w3.org/2000/svg">
<g clip-path="url(#clip0_3618_10107)">
<path d="M15.1078 35C21.7828 35 26.7872 31.4428 26.7872 25.2964C26.7872 18.7933 22.077 16.6605 16.8245 15.341L13.1429 14.4255C9.56101 13.51 7.30188 12.4449 7.30188 9.44648C7.30188 6.85467 9.55845 5.33053 12.7003 5.33053C16.3614 5.33053 18.9071 6.82581 20.959 10.9759L25.989 8.47587C23.6352 3.8064 19.0836 0 13.0482 0C7.01277 0 1.51462 3.45488 1.51462 9.85572C1.51462 16.2566 6.47037 18.4916 11.1319 19.5068L14.2225 20.2177C18.4926 21.1831 21.1406 22.0986 21.1406 25.3987C21.1406 28.4969 18.4901 29.7167 15.2024 29.7167C11.178 29.7167 7.25327 27.3793 5.12462 22.3767L0 24.9344C2.5508 30.6742 8.24595 35 15.1078 35Z" fill="white"/>
<path d="M37.873 35C41.1863 35 43.384 33.3762 44.7093 31.0677C45.0598 30.4565 45.9706 30.7057 45.9706 31.414V34.4911H51.5148V9.75342H45.9706V23.6228C45.9706 27.6863 44.5967 30.3778 40.5722 30.3778C36.8906 30.3778 35.9107 28.2949 35.9107 25.2466V9.75342H30.4151V26.9753C30.4151 32.1065 33.2601 35.0026 37.873 35.0026V35Z" fill="white"/>
<path d="M61.8152 34.4937V20.8788C61.8152 16.7629 64.366 13.5126 67.1164 13.5126C68.7359 13.5126 69.373 14.6301 69.373 16.0021C69.373 17.3741 69.0762 18.7461 68.7103 19.8636H74.1087C74.3543 18.872 74.8455 17.3242 74.8455 14.937C74.8455 11.2802 72.3689 9.24712 69.3755 9.24712C66.3821 9.24712 64.3456 10.9628 63.0638 13.3368C62.7312 13.9533 61.8178 13.7146 61.8178 13.0089V9.75603H56.3222V34.4963H61.8178L61.8152 34.4937Z" fill="white"/>
<path d="M83.1042 34.4937V14.2943H90.0735V9.75341H83.1042C83.1042 9.75341 82.3853 4.53043 86.2256 4.53043C89.4748 4.53043 90.0735 7.6915 90.0735 7.6915L94.5457 5.46432C93.5147 3.15582 90.8487 0 86.0772 0C82.3239 0 77.6086 2.21406 77.6086 10.181V34.4937H83.1042Z" fill="white"/>
<path d="M102.252 35C107.553 35 110.789 32.5105 112.606 29.6668L109.221 26.01C108.338 28.0929 106.307 30.3279 102.303 30.3279C98.8133 30.3279 96.022 27.9407 95.7278 23.5205H112.806C112.903 23.0115 113.003 21.9465 113.003 21.031C113.003 14.1737 109.027 9.24449 101.863 9.24449C95.1393 9.24449 90.4778 14.3757 90.4778 22.1485C90.4778 29.9213 95.1393 35 102.254 35H102.252ZM101.86 13.8169C105.491 13.8169 108.044 16.2329 108.044 19.4124H95.7764C95.7764 16.3143 98.4756 13.8169 101.86 13.8169Z" fill="white"/>
</g>
<defs>
<clipPath id="clip0_3618_10107">
<rect width="113" height="35" fill="white"/>
</clipPath>
</defs>
</svg>
