<svg width="116" height="35" viewBox="0 0 116 35" fill="none" xmlns="http://www.w3.org/2000/svg">
<g clip-path="url(#clip0_3618_10098)">
<path d="M15.5089 35C22.3611 35 27.4984 31.4428 27.4984 25.2964C27.4984 18.7933 22.6632 16.6605 17.2712 15.341L13.4918 14.4255C9.81484 13.51 7.49573 12.4449 7.49573 9.44648C7.49573 6.85467 9.81221 5.33053 13.0374 5.33053C16.7958 5.33053 19.4091 6.82581 21.5154 10.9759L26.6789 8.47587C24.2626 3.8064 19.5903 0 13.3946 0C7.19895 0 1.55483 3.45488 1.55483 9.85572C1.55483 16.2566 6.64215 18.4916 11.4274 19.5068L14.6001 20.2177C18.9836 21.1831 21.7019 22.0986 21.7019 25.3987C21.7019 28.4969 18.981 29.7167 15.606 29.7167C11.4747 29.7167 7.44583 27.3793 5.26067 22.3767L0 24.9344C2.61852 30.6742 8.46487 35 15.5089 35Z" fill="#073742"/>
<path d="M38.8785 35C42.2797 35 44.5357 33.3762 45.8962 31.0677C46.256 30.4565 47.191 30.7057 47.191 31.414V34.4911H52.8824V9.75342H47.191V23.6228C47.191 27.6863 45.7806 30.3778 41.6493 30.3778C37.8699 30.3778 36.864 28.2949 36.864 25.2466V9.75342H31.2225V26.9753C31.2225 32.1065 34.1431 35.0026 38.8785 35.0026V35Z" fill="#073742"/>
<path d="M63.4563 34.4937V20.8788C63.4563 16.7629 66.0748 13.5126 68.8981 13.5126C70.5607 13.5126 71.2146 14.6301 71.2146 16.0021C71.2146 17.3741 70.91 18.7461 70.5344 19.8636H76.0761C76.3282 18.872 76.8325 17.3242 76.8325 14.937C76.8325 11.2802 74.2901 9.24712 71.2173 9.24712C68.1444 9.24712 66.0538 10.9628 64.7379 13.3368C64.3965 13.9533 63.4589 13.7146 63.4589 13.0089V9.75603H57.8174V34.4963H63.4589L63.4563 34.4937Z" fill="#073742"/>
<path d="M85.3106 34.4937V14.2943H92.4649V9.75341H85.3106C85.3106 9.75341 84.5725 4.53043 88.5148 4.53043C91.8503 4.53043 92.4649 7.6915 92.4649 7.6915L97.0558 5.46432C95.9974 3.15582 93.2607 0 88.3624 0C84.5095 0 79.6691 2.21406 79.6691 10.181V34.4937H85.3106Z" fill="#073742"/>
<path d="M104.966 35C110.408 35 113.731 32.5105 115.595 29.6668L112.121 26.01C111.215 28.0929 109.129 30.3279 105.019 30.3279C101.437 30.3279 98.5712 27.9407 98.2691 23.5205H115.8C115.9 23.0115 116.003 21.9465 116.003 21.031C116.003 14.1737 111.921 9.24449 104.567 9.24449C97.6651 9.24449 92.8798 14.3757 92.8798 22.1485C92.8798 29.9213 97.6651 35 104.969 35H104.966ZM104.565 13.8169C108.291 13.8169 110.913 16.2329 110.913 19.4124H98.319C98.319 16.3143 101.09 13.8169 104.565 13.8169Z" fill="#073742"/>
</g>
<defs>
<clipPath id="clip0_3618_10098">
<rect width="116" height="35" fill="white"/>
</clipPath>
</defs>
</svg>
