<svg width="120" height="120" viewBox="0 0 120 120" fill="none" xmlns="http://www.w3.org/2000/svg">
<g clip-path="url(#clip0_3216_6708)">
<path d="M87.2727 0H32.7273C14.6525 0 0 14.6525 0 32.7273V87.2727C0 105.347 14.6525 120 32.7273 120H87.2727C105.347 120 120 105.347 120 87.2727V32.7273C120 14.6525 105.347 0 87.2727 0Z" fill="#BDEDFC"/>
<path d="M63.0949 70.6594C56.2285 70.6594 49.5324 66.77 45.9006 58.4457L37.1484 62.7017C41.5005 72.2526 51.2173 79.4508 62.9247 79.4508C74.632 79.4508 82.8516 73.5316 82.8516 63.3041C82.8516 52.4829 74.8153 48.934 65.8537 46.7383L59.5722 45.2149C53.461 43.6915 49.6066 41.9192 49.6066 36.9298C49.6066 32.6171 53.4566 30.0809 58.817 30.0809C65.0636 30.0809 69.4069 32.5691 72.9077 39.4747L81.4896 35.3147C77.4781 27.5448 69.7081 21.2109 59.4107 21.2109C49.1133 21.2109 39.7326 26.9598 39.7326 37.6108C39.7326 48.2618 48.1879 51.9809 56.1412 53.6702L61.4143 54.8532C68.6997 56.4595 73.2177 57.983 73.2177 63.4743C73.2177 68.6296 68.6954 70.6594 63.0862 70.6594H63.0949Z" fill="#073742"/>
<path d="M81.4765 88.0718H39.7239V97.5354H81.4765V88.0718Z" fill="#073742"/>
</g>
<defs>
<clipPath id="clip0_3216_6708">
<rect width="120" height="120" fill="white"/>
</clipPath>
</defs>
</svg>
