<svg width="57" height="57" viewBox="0 0 57 57" fill="none" xmlns="http://www.w3.org/2000/svg">
<path d="M30.1083 34.7105C26.5401 34.7105 23.0604 32.5703 21.1731 27.9896L16.625 30.3316C18.8866 35.5873 23.936 39.5483 30.0198 39.5483C36.1036 39.5483 40.375 36.2911 40.375 30.6631C40.375 24.7083 36.1989 22.7555 31.5419 21.5472L28.2777 20.7089C25.102 19.8706 23.099 18.8954 23.099 16.1498C23.099 13.7766 25.0997 12.381 27.8853 12.381C31.1313 12.381 33.3884 13.7502 35.2076 17.5502L39.6673 15.2611C37.5826 10.9854 33.5449 7.5 28.1938 7.5C22.8426 7.5 17.9679 10.6635 17.9679 16.5245C17.9679 22.3856 22.3617 24.4321 26.4947 25.3617L29.235 26.0127C33.0209 26.8966 35.3687 27.7349 35.3687 30.7567C35.3687 33.5936 33.0186 34.7105 30.1037 34.7105H30.1083Z" fill="white"/>
<path d="M39.6605 44.2924H17.9633V49.5H39.6605V44.2924Z" fill="white"/>
</svg>
