<svg width="31" height="30" viewBox="0 0 31 30" fill="none" xmlns="http://www.w3.org/2000/svg">
<g clip-path="url(#clip0_1368_5024)">
<path d="M1.49455 22.337C1.49455 22.8801 1.49455 23.3274 1.49455 23.7747C1.49455 24.19 1.37092 24.5414 0.90731 24.5733C0.4437 24.6053 0.227349 24.2858 0.196442 23.8705C0.10372 22.7843 -0.112631 21.6661 0.0728127 20.6119C0.412793 18.5672 0.474608 16.4906 0.783681 14.446C1.52546 9.65386 3.59625 5.59652 7.27422 2.52956C8.69596 1.34751 10.334 0.51687 12.1267 0.101552C12.2812 0.0696049 12.4357 0.00570989 12.6212 0.00570989C12.9612 -0.0262376 13.2702 0.0696049 13.3939 0.452975C13.5175 0.90024 13.2702 1.15582 12.8994 1.28361C12.4976 1.4114 12.0649 1.50724 11.6631 1.63503C9.77771 2.30593 8.20144 3.42409 6.84152 4.89368C5.04889 6.81053 3.78169 9.04685 3.07082 11.6346C3.19445 11.4749 3.31808 11.3151 3.44171 11.1554C3.56534 10.9637 3.68897 10.7401 3.8126 10.5484C5.72885 7.41753 8.32507 5.18121 11.7249 3.90331C17.9063 1.66698 24.7059 4.31862 28.0439 8.15232C31.1038 11.6985 31.8146 15.6919 30.0529 20.1007C29.1566 22.369 27.7967 24.2858 25.9113 25.7873C21.1516 29.5572 15.8046 30.899 9.90134 29.3974C6.28518 28.4709 3.56534 26.2666 1.86544 22.8162C1.80362 22.6884 1.74181 22.5926 1.67999 22.4648C1.67999 22.4648 1.64909 22.4329 1.49455 22.337ZM14.352 28.4709C17.3809 28.439 20.3789 27.6084 23.1297 25.9471C25.6641 24.4136 27.5803 22.337 28.693 19.5256C30.2075 15.7239 29.6202 12.2736 26.9931 9.17464C25.7568 7.70506 24.2114 6.68274 22.5115 5.916C16.4537 3.13657 9.80862 4.79784 5.9143 10.0692C4.30712 12.2416 3.13264 14.6696 2.26723 17.2893C2.1127 17.7366 2.08179 18.2477 2.1436 18.695C2.73084 22.4329 4.58528 25.2442 7.89236 27.0014C9.83953 28.0876 11.9721 28.4709 14.352 28.4709Z" fill="#73C7E1"/>
<path d="M13.4726 12.4125C13.3707 14.5471 13.2735 16.6374 13.1717 18.7818C13.3245 18.8162 13.4587 18.8457 13.5929 18.8703C13.6115 18.9293 13.6577 19.0031 13.6392 19.0474C13.4957 19.3671 13.3846 19.7163 13.1763 19.9868C12.9217 20.3262 12.4403 20.2622 12.2366 19.8835C12.1209 19.6622 12.0422 19.3966 12.0191 19.1458C11.9867 18.7916 12.0006 18.4277 12.0237 18.0686C12.1348 16.2046 12.2829 14.3454 12.357 12.4814C12.3848 11.837 12.8338 11.5272 13.1162 11.0845C13.1717 10.996 13.4124 10.9813 13.5466 11.0206C13.7781 11.0895 14.0095 11.2026 14.2132 11.3403C15.7084 12.3338 17.3239 13.0617 18.9533 13.77C19.8097 14.1438 20.6522 14.5422 21.4993 14.9307C21.6104 14.9848 21.7261 15.0389 21.8372 15.093C22.1011 15.2209 22.3325 15.3783 22.3233 15.7373C22.314 16.0914 22.0964 16.239 21.8048 16.3275C21.6011 16.3915 21.4021 16.4898 21.2169 16.6079C19.5088 17.7145 17.7961 18.8211 16.1019 19.9573C15.6991 20.2278 15.2872 20.4836 14.9863 20.9459C14.7456 21.3148 14.2456 21.3689 13.8012 21.2951C13.5929 21.2607 13.5466 21.1475 13.3846 20.5426C13.7272 20.2524 14.0651 19.913 14.4493 19.6523C16.088 18.5457 17.7405 17.4637 19.3885 16.3767C19.6708 16.1898 19.9486 16.0029 20.1847 15.8406C20.1893 15.7176 20.2032 15.6832 20.1893 15.6537C20.18 15.6291 20.1476 15.6045 20.1198 15.5898C20.0087 15.5307 19.9023 15.4668 19.7912 15.4176C18.4071 14.7782 17.0138 14.1585 15.639 13.4995C14.9955 13.1896 14.3799 12.8158 13.7457 12.4715C13.704 12.4322 13.6392 12.442 13.4726 12.4125Z" fill="#73C7E1"/>
</g>
<defs>
<clipPath id="clip0_1368_5024">
<rect width="31" height="30" fill="white"/>
</clipPath>
</defs>
</svg>
