<svg width="24" height="24" viewBox="0 0 24 24" fill="none" xmlns="http://www.w3.org/2000/svg">
<rect width="24" height="24" rx="3" fill="#F8FABB"/>
<path fill-rule="evenodd" clip-rule="evenodd" d="M19.5536 7.36885C19.8234 7.63455 19.8268 8.06871 19.5611 8.33857L13.2314 14.7671C13.1025 14.898 12.9265 14.9718 12.7428 14.9718C12.5591 14.9718 12.3831 14.898 12.2542 14.7671L10.1055 12.5848L5.84682 16.91C5.58111 17.1799 5.14696 17.1832 4.8771 16.9175C4.60724 16.6518 4.60388 16.2177 4.86958 15.9478L9.61684 11.1264C9.74572 10.9955 9.92175 10.9218 10.1055 10.9218C10.2892 10.9218 10.4652 10.9955 10.5941 11.1264L12.7428 13.3087L18.5839 7.37637C18.8496 7.10651 19.2837 7.10315 19.5536 7.36885Z" fill="#A1A500"/>
<path fill-rule="evenodd" clip-rule="evenodd" d="M13.2439 7.85747C13.2439 7.47876 13.5509 7.17175 13.9296 7.17175H19.0725C19.4512 7.17175 19.7582 7.47876 19.7582 7.85747V13.0003C19.7582 13.379 19.4512 13.686 19.0725 13.686C18.6938 13.686 18.3868 13.379 18.3868 13.0003V8.54318H13.9296C13.5509 8.54318 13.2439 8.23618 13.2439 7.85747Z" fill="#A1A500"/>
</svg>
